<svg width="128" height="128" xmlns="http://www.w3.org/2000/svg" xml:space="preserve"><circle/><path d="m69.398 121.062-5.15-35.06c-.15-.76-.81-1.27-1.56-1.27s-1.41.51-1.55 1.22l-5.17 35.11-6.2.24-1.03-46.03h27.88l-1.02 46.03-6.2-.24z" fill="#3C2B24"/><path d="M72.698 123.652h4.45c.82-.02 1.41-.96 1.17-1.78-.74-2.49-2.99-4.32-5.62-4.32-2.68 0-4.96 1.9-5.66 4.46-.22.82.39 1.63 1.21 1.63h4.45v.01zm-20.04 0h-4.45c-.82-.02-1.41-.96-1.17-1.78.74-2.49 2.99-4.32 5.62-4.32 2.68 0 4.96 1.9 5.66 4.46.22.82-.39 1.63-1.21 1.63h-4.45v.01z" fill="#424242"/><path fill="url(#a)" d="M37.904 90.731c-.99 0-2.47-1.23-2.64-2.48-.08-.59-.19-1.16-.29-1.7-.32-1.67-.59-3.12.08-4.55 1.28-2.69 1.41-3.1 1.71-4.07.07-.22.14-.47.25-.78.27-.81.86-4.47 1.22-8.96.46-5.76 1.31-10.11 2.67-13.69.85-2.24 2.37-3.37 4.51-3.37 1.86 0 3.7.85 4.45 1.24l-2.1 6.85-5.36 19.31.1.19c.81 1.61 1.01 3.62 1.11 5.38.07 1.47-.08 2.19-.16 2.54-.03.15-.05.25-.05.33-.03.62-.51.9-.94.9-.28 0-.48-.11-.54-.31-.18-.52-.19-1.15-.2-1.7-.01-.81-.03-1.65-.77-1.82l-.18-.02c-.33 0-.62.15-.91.44-.55.57-1.12 1.81-1.08 2.8.03.73.12 2.94-.42 3.35-.12.08-.28.12-.46.12z"/><path fill="#7C7C7C" d="m69.366 121.261-5.15-35.06c-.15-.76-.81-1.27-1.56-1.27s-1.41.51-1.55 1.22l-5.17 35.11-6.2.24-1.03-46.03h27.88l-1.02 46.03-6.2-.24z"/><path d="M72.666 123.851h4.45c.82-.02 1.41-.96 1.17-1.78-.74-2.49-2.99-4.32-5.62-4.32-2.68 0-4.96 1.9-5.66 4.46-.22.82.39 1.63 1.21 1.63h4.45v.01zm-20.04 0h-4.45c-.82-.02-1.41-.96-1.17-1.78.74-2.49 2.99-4.32 5.62-4.32 2.68 0 4.96 1.9 5.66 4.46.22.82-.39 1.63-1.21 1.63h-4.45v.01z" fill="#424242"/><path fill="#FFCA28" d="M72.316 44.721c-2.41-.64-5.58-1.06-9.54-1.06h-.16c-3.96 0-7.18.42-9.57 1.06-7.55 2.01-9.46 6.56-11.71 12.65l7.37 3.2v17.28h28v-17.28l7.28-3.2c-2.25-6.09-4.12-10.64-11.67-12.65z"/><path fill="#543930" d="M77.736 36.861c-.54-.98.15-1.98 1.32-3.22 1.86-1.96 3.89-6.51 2.01-11.14.01-.03-.37-.81-.36-.83l-.78-.04c-.25-.04-8.76-.05-17.28-.05-8.52 0-17.03.02-17.28.05 0 0-1.15.84-1.14.87-1.88 4.62.15 9.17 2.01 11.14 1.17 1.24 1.86 2.24 1.32 3.22-.52.95-2.08 1.09-2.08 1.09s.36.98 1.22 1.5c.8.49 1.78.6 2.47.62 0 0 2.66 3.68 9.61 3.68h7.74c6.95 0 9.61-3.68 9.61-3.68.68-.02 1.66-.13 2.47-.62.87-.53 1.22-1.5 1.22-1.5s-1.56-.14-2.08-1.09z"/><path fill="url(#b)" d="M62.646 43.751v-4.08l12.35-.98 1.12 1.38s-2.66 3.68-9.61 3.68h-3.86z"/><path fill="url(#c)" d="M76.086 38.291c-1.85-2.81 2.25-3.86 2.25-3.86-.71.89-1.04 1.66-.62 2.42.52.95 2.08 1.09 2.08 1.09s-2.11 1.9-3.71.35z"/><path fill="url(#d)" d="M81.076 22.501c1.84 4.48-.1 9.08-1.91 11.03-.25.27-1.3 1.3-1.54 2.13 0 0-4.12-5.75-5.36-9.13-.25-.68-.47-1.39-.5-2.11-.02-.54.06-1.19.38-1.65.38-.57 8.72-.73 8.72-.73-.01-.01.21.46.21.46z"/><path fill="url(#e)" d="M44.226 22.501c-1.84 4.48.1 9.08 1.91 11.03.25.27 1.3 1.3 1.54 2.13 0 0 4.12-5.75 5.36-9.13.25-.68.47-1.39.51-2.11.02-.54-.06-1.19-.38-1.65-.38-.57-.83-.42-1.49-.42-1.25 0-6.69-.32-7.12-.32.01 0-.33.47-.33.47z"/><path fill="url(#f)" d="M62.656 43.751v-4.08l-12.35-.98-1.12 1.38s2.66 3.68 9.61 3.68h3.86z"/><path fill="url(#g)" d="M49.216 38.291c1.85-2.81-2.25-3.86-2.25-3.86.71.89 1.04 1.66.62 2.42-.52.95-2.08 1.09-2.08 1.09s2.11 1.9 3.71.35z"/><path fill="#E59600" d="M62.646 40.571h-5v5.3c0 2.4 2.03 4.34 4.54 4.34h.91c2.51 0 4.54-1.94 4.54-4.34v-5.3h-4.99zm11.97-16.38h-23.94c-2.58 0-4.69 2.25-4.69 5s2.11 5 4.69 5h23.95c2.58 0 4.69-2.25 4.69-5s-2.11-5-4.7-5z"/><path fill="#FFCA28" d="M62.646 6.511c-7.62 0-14.69 8.15-14.69 19.89 0 11.67 7.28 17.44 14.69 17.44s14.69-5.77 14.69-17.44c0-11.74-7.07-19.89-14.69-19.89z"/><path fill="#543930" d="M80.046 13.191c-1.06-1.6-3.42-3.74-5.54-3.88-.34-2.04-2.52-3.77-4.64-4.44-5.72-1.81-9.44.22-11.44 1.31-.42.23-3.1 1.72-4.98.65-1.18-.67-1.15-2.48-1.15-2.48s-3.69 1.4-2.42 5.32c-1.26.05-2.93.59-3.81 2.36-1.05 2.12-.67 3.89-.37 4.74-1.09.92-2.46 2.89-1.52 5.45.71 1.92 3.53 2.81 3.53 2.81-.2 3.46.45 5.59.79 6.46.06.15.27.14.31-.02.43-1.71 1.89-7.69 1.74-8.74 0 0 4.9-.97 9.58-4.42.95-.7 1.98-1.3 3.08-1.74 5.88-2.34 7.11 1.65 7.11 1.65s4.07-.78 5.3 4.87c.46 2.12.78 5.51 1.04 7.89.02.17.25.2.31.05.41-.94 1.23-2.81 1.43-4.72.07-.67 1.88-1.56 2.65-4.44 1.04-3.83-.23-7.52-1-8.68z"/><path fill="url(#h)" d="M78.386 26.331c.07-.67 1.88-1.56 2.65-4.44.08-.31.15-.62.22-.93.63-3.5-.5-6.71-1.21-7.77-.98-1.48-3.07-3.41-5.06-3.81-.17-.02-.34-.04-.5-.05 0 0 .14.93-.23 1.67-.49.96-1.47 1.19-1.47 1.19 5.17 5.18 4.8 9.51 5.6 14.14z"/><path fill="url(#i)" d="M59.676 5.531c-.47.23-.89.46-1.25.65-.42.23-3.1 1.72-4.98.65-1.16-.66-1.15-2.41-1.15-2.47-.53.68-2.14 5.53 2.56 5.85 2.03.14 3.28-1.63 4.02-3.13.27-.54.69-1.33.8-1.55z"/><path fill="url(#j)" d="M69.276 4.701c3.17.86 4.71 2.47 5.22 4.62.15.63.33 6.52-10.91-.17-4.18-2.49-3.04-4.05-2.55-4.22 1.92-.7 4.7-1.19 8.24-.23z"/><path fill="url(#k)" d="M52.276 4.361c-.01 0-.01.01-.03.01-.4.17-3.56 1.63-2.38 5.3l3.37.54c-2.98-3.02-.94-5.86-.94-5.86s-.01.01-.02.01z"/><path fill="url(#l)" d="m51.946 10.001-2.08-.34c-.08 0-.36.02-.51.05-1.17.16-2.55.77-3.3 2.32-.8 1.67-.78 3.1-.56 4.06.06.32.19.68.19.68s1.03-.98 3.48-1.04l2.78-5.73z"/><path fill="url(#m)" d="M45.596 16.851c-1.02.91-2.4 2.94-1.39 5.45.77 1.9 3.5 2.72 3.5 2.72 0 .01.55.17.83.17l.64-9.47c-1.31 0-2.57.39-3.38.96 0 .02-.21.16-.2.17z"/><path fill="#795548" d="M66.336 35.841c-1.4.83-5.97.83-7.37 0-.8-.48-1.62.25-1.29.98.33.72 2.82 2.38 4.98 2.38 2.16 0 4.62-1.66 4.95-2.38.34-.73-.47-1.46-1.27-.98z"/><path fill="#E59600" d="M64.336 32.251a.737.737 0 0 0-.14-.04h-3.1c-.05.01-.1.02-.14.04-.28.11-.44.4-.3.72s.75 1.18 1.99 1.18 1.86-.87 1.99-1.18c.14-.31-.02-.6-.3-.72z"/><g fill="#404040"><ellipse ry="2.24" rx="2.16" cy="28.181" cx="55.446"/><ellipse ry="2.24" rx="2.16" cy="28.181" cx="69.846"/></g><path d="M66.646 24.171c.41-.54 1.36-1.34 3.21-1.34s2.8.79 3.21 1.34c.18.24.14.52.01.69-.12.16-.46.3-.84.17-.38-.13-1.13-.51-2.37-.52-1.25.01-1.99.39-2.37.52-.38.13-.73-.01-.84-.17a.54.54 0 0 1-.01-.69zm-14.41 0c.41-.54 1.36-1.34 3.21-1.34s2.8.79 3.21 1.34c.18.24.14.52.01.69-.12.16-.46.3-.84.17-.38-.13-1.13-.51-2.37-.52-1.25.01-1.99.39-2.37.52-.38.13-.73-.01-.84-.17a.54.54 0 0 1-.01-.69z" fill="#6D4C41"/><path d="M92.316 86.06c-2.386.555-4.278 1.978-6.36 3.457-2.32 1.67-4.828 3.463-8.3 4.529l.457 2.39c4.462-1.22 7.544-3.42 10.047-5.188 1.898-1.355 3.546-2.532 5.2-2.902l-1.044-2.286z" fill="#E2A610" stroke="null"/><path d="m61.566 115.575-.122 1.423a.554.554 0 0 0 .464.592c.866.13 2.691.21 4.492-.13a.55.55 0 0 0 .427-.622l-.244-1.491c-.043-.308-.33-.542-.629-.475-1.819.4-3.082.265-3.79.191a.537.537 0 0 0-.598.512z" fill="#FFF59D" stroke="null"/><path d="m78.339 53.829 1.239.647c.806-2.841.964-5.823.964-5.823s-.805-.647-1.239-.844c0 0-.134 2.735-.964 6.02z" fill="#FFCA28" stroke="null"/><path d="M57.489 113.757c-2.552-1.41-4.584-1.306-5.262-1.325-.183 1.707-.305 2.896-.305 2.896 1.91.05 2.454.524 5.219 1.368 0-.006.14-1.164.348-2.939zm17.706-1.214c-.94-.012-2.337-.018-3.424.124l-.494.08.195 3.117c.19-.067 1.087-.536 4.273-.4l-.55-2.92z" fill="#E2A610" stroke="null"/><path d="m77.455 54.914-6.53 6.298 6.11 34.166c5.17-1.842 8.703-5.293 11.541-7.073 1.648-1.036 3.437-1.596 3.437-1.596L77.455 54.914z" fill="#00796B" stroke="null"/><path d="m43.757 99.696-1.899 15.62c3.913 2.532 8.564.739 11.195 1.355 2.63.616 5.2 2.532 9.784 2.532s5.872-1.916 8.502-2.532c2.631-.616 6.238 1.232 11.805-2.101l-8.563-46.983c.03-.062-5.445 11.048-13.362 19.305-7.501 7.819-17.462 12.804-17.462 12.804z" fill="#26A69A" stroke="null"/><path d="M49.903 98.342c.5-.302 2.765-1.516 2.558 1.768-.33 5.115-1.398 14.714-1.398 14.714s1.196-.012 1.984.265c.885.315 3.235 1.146 3.235 1.146s1.287-11.688 2.08-17.511c1.13-8.263 4.286-10.61 5.232-11.19.94-.573 2.49-.69 3.37 1.319 1.879 4.307 3.423 15.916 3.71 18.399.287 2.483.903 2.144.928-.167.073-7.486.232-25.164.836-29.89 1.13-8.836 2.533-9.501 2.533-9.501l-.397-2.163c.013-.025.525-.03-.793-.03-2.124 4.516-6.696 13.093-13.617 20.092C49.665 96.216 43.757 97.64 43.757 97.64l-.489 4.073s1.703-.37 6.635-3.37z" fill="#00796B" stroke="null"/><path d="m79.653 59.677 4.26 9.341s-4.535-4.153-5.072.894c-.531 5.046-1.642 10.006-1.642 10.006l-5.573-21.282 8.027 1.041z" fill="#00695C" stroke="null"/><path d="M62.837 119.2c-4.67-.02-6.794-1.597-10.212-2.595-3.35-.339-7.483.992-10.889-1.355l.458-3.1c3.357 2.391 7.611 1.06 11.158 1.676 3.302.881 5.402 2.533 9.418 2.533 3.973.03 4.681-2.015 8.136-2.471 4.236-.555 6.824.998 11.72-2.496l.646 3.235c-5.383 3.235-7.66 1.646-11.633 2.095-3.095.943-4.066 2.459-8.802 2.477z" fill="#FFCA28" stroke="null"/><path fill="url(#n)" d="M87.024 90.55c-.18 0-.34-.05-.46-.14-.53-.4-.44-2.61-.41-3.34.04-1-.53-2.23-1.08-2.81-.28-.29-.58-.44-.88-.44h-.04l-.11.01-.13.04c-.67.15-.68.98-.69 1.79-.01.56-.02 1.18-.2 1.71-.1.3-.47.31-.54.31-.44 0-.92-.28-.94-.9 0-.08-.02-.18-.06-.33-.07-.35-.23-1.07-.15-2.54.1-1.76.31-3.77 1.11-5.38l.1-.19-5.36-19.3-2.1-6.87c.76-.4 2.6-1.25 4.45-1.25 2.15 0 3.66 1.14 4.5 3.38 1.38 3.6 2.23 7.95 2.68 13.7.35 4.42.94 8.1 1.21 8.96.08.25.24.76.24.76.31 1.01.43 1.39 1.72 4.1.68 1.43.41 2.87.09 4.54-.11.56-.21 1.12-.29 1.7-.19 1.27-1.67 2.49-2.66 2.49z"/><path d="M86.97 55.962c-1.525-1.978-4.602-6.193-7.788-8.19-3.851-2.347-7.99-3.789-7.99-3.789s-3.076 5.256-7.641 6.113-8.137-1.916-8.991-3.087c-.916-1.356-1.404-2.84-2.326-2.533-1.526.555-3.912 1.208-6.482 3.087-2.155 1.578-6.244 6.427-7.77 8.399-.366.431-.305 1.109.122 1.479l5.2 5.25c.428.43 1.16.43 1.594 0l3.729-3.58.61 2.655c.733 3.087.977 4.443.916 5.804 0 .056 24.647.056 24.647 0-.061-1.355.183-2.717.915-5.804l.61-2.656 3.73 3.58c.427.432 1.16.432 1.593 0l5.2-5.25a1.07 1.07 0 0 0 .123-1.478z" fill="#C62828" stroke="null"/><path d="M61.071 49.59c-3.973-.554-5.444-3.641-6.054-4.941-.184-.37-.61-.555-1.038-.431l-2.002.757s1.208 3.322 3.1 4.985c3.73 3.334 9.236 3.272 12.538 1.233l.488-3.95c-2.625 1.978-3.607 2.779-7.032 2.348z" fill="#FF7555" stroke="null"/><path stroke="null" d="M83.844 58.095c-1.35-2.36-4.073-7.391-6.892-9.774-3.409-2.803-7.07-4.524-7.07-4.524s-2.723 6.274-6.763 7.296-7.2-2.287-7.957-3.684c-.81-1.619-1.242-3.391-2.058-3.023-1.35.662-3.462 1.441-5.736 3.685-1.907 1.882-5.526 7.67-6.876 10.024-.324.515-.27 1.324.108 1.766l4.602 6.266c.378.515 1.026.515 1.41 0l3.3-4.273.54 3.17c.648 3.685.864 5.303.81 6.928 0 .066 21.812.066 21.812 0-.054-1.618.162-3.243.81-6.928l.54-3.17 3.3 4.273c.378.515 1.027.515 1.41 0l4.602-6.266c.378-.434.432-1.25.108-1.766z" fill="#C62828"/><path stroke="null" d="M72.057 44.559c-8.218 8.309-23.837 20.26-23.837 20.26l1.24 5.44-1.639 3.366.039 7.234-1.769 3.761-2.147 14.889s16.043-7.146 24.789-20.82c9.523-14.6 10.513-21.77 12.005-30.375 0 0-5.086-2.963-8.68-3.755z" fill="#80DDD2"/><path d="M47.816 64.313s.885 4.948.94 5.398-1.6 2.656-1.6 3.512c0 .857-.018 5.922-.018 6.525 0 .604-1.55 3.217-1.623 3.808-.074.586-1.764 14.745-1.764 14.745s1.971-.295 4.303-1.663c.561-10.167-.507-13.507 1.52-15.232 2.026-1.72 6.006-4.473 11.041-13.174.214-.363.464-1.115-.036-1.232-.415-.099-.898.807-.99.936-1.464 2.126-3.79 5.096-8.33 7.431-1.954 1.005-1.862-3.789-.96-4.288 1.643-.98 6.141-4.683 9.321-8.805.11-.148.684-.813.428-1.06-.232-.216-.867.413-.867.42 0 0-4.316 4.029-6.195 4.805-2.222.968-1.984-1.214-2.137-4.56-2.325 1.898-3.033 2.434-3.033 2.434z" fill="#29B3A6" stroke="null"/><path fill="#FFE36C" d="m51.215 90.584-1.776-2.218 1.776-2.218 1.783 2.218z" stroke="null"/><path fill="#FFCA28" stroke="null" d="m46.24 93.468-1.44-1.805 1.44-1.8 1.447 1.8z"/><path fill="#FFE36C" d="m60.7 81.767-2.142-2.594 2.143-2.594 2.075 2.655zm8.705-12.434-2.143-2.594 2.143-2.588 2.075 2.65zm3.021-6.057-1.856-2.25 1.856-2.242 1.8 2.298zM56.141 86.653l-2.02-2.446 1.96-2.44 2.02 2.44z" stroke="null"/><path fill="#FFCA28" stroke="null" d="m48.383 109.756-2.142-2.595 2.142-2.594 2.082 2.594zm27.626 0-2.143-2.595 2.143-2.594 2.142 2.594z"/><path fill="#FFE36C" stroke="null" d="m62.62 113.52-2.137-2.594 2.137-2.594 2.142 2.594z"/><path d="M55.38 51.492a8.326 8.326 0 0 1-3.248-2.871.524.524 0 0 1 .19-.74l1.226-.69a.514.514 0 0 1 .66.13c.634.819 1.214 1.398 2.136 1.947.225.129.31.412.213.653l-.488 1.294a.5.5 0 0 1-.69.277z" fill="#FFA996" stroke="null"/><path fill="#FFE36C" d="m74.69 57.946-1.606-1.984 1.562-1.898 1.606 1.94zm1.447-5.441-1.38-1.713 1.337-1.633 1.386 1.67zm-10.706 23.1-2.228-2.699 2.167-2.698 2.228 2.698z" stroke="null"/><path d="m71.266 45.883-1.33-.437C61.31 54.078 48.548 63.77 48.548 63.77c-.75.634-.83 1.362-.653 2.47 9.925-6.093 23.371-20.358 23.371-20.358zm8.249 1.57s-.108 12.071-12.39 30.166c-8.778 12.93-20.214 18.763-23.634 20.332-.09.82-.19 1.703-.26 2.364 0 0 15.09-5.674 25.515-21.692C80.277 60.91 80.8 48.215 80.8 48.215c-.687-.483-.935-.63-1.284-.762z" fill="#FFE36C" stroke="null"/><path stroke="null" d="m76.274 45.85-.907-.404C67.991 68.56 52.075 82.326 44.73 87.803c-.019.083-.031.159-.05.24a62.603 62.603 0 0 0-.346 2.31c6.614-4.454 23.752-18.13 31.94-44.502z" fill="#FFE36C"/><path d="M53.975 59.498c-3.174 2.557-5.701 4.35-5.701 4.35-.75.635-.488 1.233-.311 2.342 1.971-1.214 4.09-2.748 6.207-4.43a95.375 95.375 0 0 0-.195-2.262zm-5.83 36.236c-1.58.912-3.479 1.904-4.285 2.28-.085.795-.183 1.651-.25 2.292 0 0 2.075-.875 4.535-2.23v-2.342zm-3.255-8.037c-.018.08-.03.154-.048.234-.104.598-.22 1.38-.336 2.25.757-.512 2.564-1.855 3.57-2.62l.062-2.433a140.73 140.73 0 0 1-3.248 2.57zM67.717 47.53c.452.111 1.813.18 1.813.18l3.18-3.254-1.33-.438c-.562.567-3.065 2.945-3.663 3.512zm5.593 3.334 1.019.296c.366-.875 1.538-4.424 1.758-5.127l-.88-.4c-.213.671-1.898 5.231-1.898 5.231z" fill="#FFCA28" stroke="null"/><defs><radialGradient gradientUnits="userSpaceOnUse" gradientTransform="matrix(1 0 0 .4912 16.1 -4.862)" r="10.125" cy="86.962" cx="52.852" id="b"><stop stop-opacity="0" stop-color="#6D4C41" offset=".728"/><stop stop-color="#6D4C41" offset="1"/></radialGradient><radialGradient gradientUnits="userSpaceOnUse" gradientTransform="matrix(-.9057 .4238 -.3144 -.6719 200.59 67.89)" r="2.992" cy="108.025" cx="96.833" id="c"><stop stop-color="#6D4C41" offset=".663"/><stop stop-opacity="0" stop-color="#6D4C41" offset="1"/></radialGradient><radialGradient gradientUnits="userSpaceOnUse" gradientTransform="matrix(-.0746 -.9972 .8311 -.0622 23.357 113.986)" r="13.142" cy="64.917" cx="82.293" id="d"><stop stop-opacity="0" stop-color="#6D4C41" offset=".725"/><stop stop-color="#6D4C41" offset="1"/></radialGradient><radialGradient gradientUnits="userSpaceOnUse" gradientTransform="matrix(.0746 -.9972 -.8311 -.0622 158.648 118.826)" r="13.142" cy="133.196" cx="82.888" id="e"><stop stop-opacity="0" stop-color="#6D4C41" offset=".725"/><stop stop-color="#6D4C41" offset="1"/></radialGradient><radialGradient gradientUnits="userSpaceOnUse" gradientTransform="matrix(-1 0 0 .4912 171.121 -4.862)" r="10.125" cy="86.962" cx="114.77" id="f"><stop stop-opacity="0" stop-color="#6D4C41" offset=".728"/><stop stop-color="#6D4C41" offset="1"/></radialGradient><radialGradient gradientUnits="userSpaceOnUse" gradientTransform="matrix(.9057 .4238 .3144 -.6719 -22.62 65.834)" r="2.992" cy="75.422" cx="49.998" id="g"><stop stop-color="#6D4C41" offset=".663"/><stop stop-opacity="0" stop-color="#6D4C41" offset="1"/></radialGradient><radialGradient gradientUnits="userSpaceOnUse" gradientTransform="matrix(.3076 .9515 .706 -.2282 -6.657 -49.341)" r="15.405" cy="69.824" cx="90.62" id="h"><stop stop-opacity="0" stop-color="#6D4C41" offset=".699"/><stop stop-color="#6D4C41" offset="1"/></radialGradient><radialGradient gradientUnits="userSpaceOnUse" gradientTransform="matrix(.8813 .4726 .5603 -1.045 -59.974 93.06)" r="4.039" cy="112.1" cx="59.755" id="i"><stop stop-color="#6D4C41" offset=".58"/><stop stop-opacity="0" stop-color="#6D4C41" offset="1"/></radialGradient><radialGradient gradientUnits="userSpaceOnUse" gradientTransform="matrix(-.9378 -.3944 -.2182 .5285 241.042 24.795)" r="12.417" cy="98.231" cx="165.368" id="j"><stop stop-opacity="0" stop-color="#6D4C41" offset=".699"/><stop stop-color="#6D4C41" offset="1"/></radialGradient><radialGradient gradientUnits="userSpaceOnUse" gradientTransform="matrix(1 0 0 -1.2233 -1.354 154.427)" r="3.707" cy="119.83" cx="55.228" id="k"><stop stop-opacity="0" stop-color="#6D4C41" offset=".702"/><stop stop-color="#6D4C41" offset="1"/></radialGradient><radialGradient gradientUnits="userSpaceOnUse" gradientTransform="matrix(-.9657 -.2598 -.2432 .9037 189.487 -64.643)" r="6.953" cy="119.335" cx="110.907" id="l"><stop stop-opacity="0" stop-color="#6D4C41" offset=".66"/><stop stop-color="#6D4C41" offset="1"/></radialGradient><radialGradient gradientUnits="userSpaceOnUse" gradientTransform="matrix(.9907 .1363 .1915 -1.3921 -20.844 158.206)" r="7.3" cy="103.699" cx="53.199" id="m"><stop stop-opacity="0" stop-color="#6D4C41" offset=".598"/><stop stop-color="#6D4C41" offset="1"/></radialGradient><linearGradient y2=".989" x2=".499" y1=".017" x1=".499" id="n"><stop stop-color="#FFCA28" offset=".599"/><stop stop-color="#FFB300" offset="1"/></linearGradient><linearGradient y2=".989" x2=".5" y1=".016" x1=".5" id="a"><stop stop-color="#FFCA28" offset=".599"/><stop stop-color="#FFB300" offset="1"/></linearGradient></defs></svg>
