<svg xmlns="http://www.w3.org/2000/svg" viewBox="0 0 128 128" style="enable-background:new 0 0 128 128" xml:space="preserve"><circle/><g transform="rotate(80 71.512 36.186)" fill="#543930" stroke="null"><ellipse cx="65.531" cy="36.186" rx="7.009" ry="6.729"/><ellipse cx="73.661" cy="36.279" rx="4.112" ry="4.206"/><ellipse cx="79.736" cy="36.279" rx="4.766" ry="3.084"/></g><ellipse fill="#543930" cx="63.194" cy="30.594" rx="17.622" ry="10.015" stroke="null"/><path fill="#f9debe" d="M39.265 90.813c-.99 0-2.47-1.23-2.64-2.48-.08-.59-.19-1.16-.29-1.7-.32-1.67-.59-3.12.08-4.55 1.28-2.69 1.41-3.1 1.71-4.07.07-.22.14-.47.25-.78.27-.81.86-4.47 1.22-8.96.46-5.76 1.31-10.11 2.67-13.69.85-2.24 2.37-3.37 4.51-3.37 1.86 0 3.7.85 4.45 1.24l-2.1 6.85-5.36 19.31.1.19c.81 1.61 1.01 3.62 1.11 5.38.07 1.47-.08 2.19-.16 2.54-.03.15-.05.25-.05.33-.03.62-.51.9-.94.9-.28 0-.48-.11-.54-.31-.18-.52-.19-1.15-.2-1.7-.01-.81-.03-1.65-.77-1.82l-.18-.02c-.33 0-.62.15-.91.44-.55.57-1.12 1.81-1.08 2.8.03.73.12 2.94-.42 3.35-.12.08-.28.12-.46.12z"/><path fill="#eec492" d="m69.863 121.405-5.15-35.06c-.15-.76-.81-1.27-1.56-1.27s-1.41.51-1.55 1.22l-5.17 35.11-6.2.24-1.03-46.03h27.88l-1.02 46.03-6.2-.24z"/><path fill="#424242" d="M73.163 123.995h4.45c.82-.02 1.41-.96 1.17-1.78-.74-2.49-2.99-4.32-5.62-4.32-2.68 0-4.96 1.9-5.66 4.46-.22.82.39 1.63 1.21 1.63h4.45v.01zm-20.04 0h-4.45c-.82-.02-1.41-.96-1.17-1.78.74-2.49 2.99-4.32 5.62-4.32 2.68 0 4.96 1.9 5.66 4.46.22.82-.39 1.63-1.21 1.63h-4.45v.01z"/><path fill="#f9debe" d="M72.813 44.865c-2.41-.64-5.58-1.06-9.54-1.06h-.16c-3.96 0-7.18.42-9.57 1.06-7.55 2.01-9.46 6.56-11.71 12.65l7.37 3.2v17.28h28v-17.28l7.28-3.2c-2.25-6.09-4.12-10.64-11.67-12.65z"/><path fill="#eec492" d="M63.143 40.715h-5v5.3c0 2.4 2.03 4.34 4.54 4.34h.91c2.51 0 4.54-1.94 4.54-4.34v-5.3h-4.99z"/><path fill="#f9debe" d="M63.133 8.385c7.63 0 14.69 5.67 14.69 17.7 0 9.66-5.98 15.38-11.19 17.22-1.24.44-2.44.66-3.5.66s-2.25-.22-3.48-.65c-5.21-1.84-11.21-7.55-11.21-17.23 0-12.03 7.07-17.7 14.69-17.7z"/><path fill="#543930" d="M63.393 4.005c-18.18 0-18.03 16.81-18.03 17.08 0 3.44.08 7.33.33 11.23l2.98-.01c-.03-1.29.88-9.3 3.58-9.9 9.91-2.23 15.52-7.49 15.52-7.49 1.46 3.18 6.02 6.29 7.66 7.47 1.35.97 1.76 8.22 1.73 9.92h3.42c0-.02.01-.05.01-.07.25-3.88.33-7.74.33-11.16 0-.26.65-17.07-17.53-17.07z"/><path fill="#795548" d="M66.833 35.985c-1.4.83-5.97.83-7.37 0-.8-.48-1.62.25-1.29.98.33.72 2.82 2.38 4.98 2.38 2.16 0 4.62-1.66 4.95-2.38.34-.73-.47-1.46-1.27-.98z"/><path fill="#dca88a" d="M64.833 32.395a.737.737 0 0 0-.14-.04h-3.1c-.05.01-.1.02-.14.04-.28.11-.44.4-.3.72s.75 1.18 1.99 1.18 1.86-.87 1.99-1.18c.14-.31-.02-.6-.3-.72z"/><g fill="#404040"><ellipse ry="2.24" rx="2.16" cy="28.325" cx="55.943"/><ellipse ry="2.24" rx="2.16" cy="28.325" cx="70.343"/></g><path fill="#6d4c41" d="M67.143 24.315c.41-.54 1.36-1.34 3.21-1.34s2.8.79 3.21 1.34c.18.24.14.52.01.69-.12.16-.46.3-.84.17-.38-.13-1.13-.51-2.37-.52-1.25.01-1.99.39-2.37.52-.38.13-.73-.01-.84-.17a.54.54 0 0 1-.01-.69zm-14.41 0c.41-.54 1.36-1.34 3.21-1.34s2.8.79 3.21 1.34c.18.24.14.52.01.69-.12.16-.46.3-.84.17-.38-.13-1.13-.51-2.37-.52-1.25.01-1.99.39-2.37.52-.38.13-.73-.01-.84-.17a.54.54 0 0 1-.01-.69z"/><path stroke="null" fill="#E2A610" d="M93.634 86.21c-2.386.554-4.279 1.977-6.36 3.456-2.32 1.67-4.828 3.463-8.3 4.529l.457 2.39c4.462-1.22 7.544-3.42 10.047-5.188 1.898-1.355 3.546-2.532 5.2-2.902l-1.044-2.286v.001z"/><path stroke="null" fill="#FFF59D" d="m62.884 115.724-.122 1.423a.554.554 0 0 0 .463.591c.867.13 2.692.21 4.493-.129a.55.55 0 0 0 .427-.622l-.244-1.491c-.043-.308-.33-.543-.629-.475-1.819.4-3.082.265-3.79.191a.537.537 0 0 0-.598.512z"/><path stroke="null" fill="#FFCA28" d="m79.657 53.977 1.24.647c.804-2.84.963-5.823.963-5.823s-.806-.647-1.239-.844c0 0-.134 2.736-.964 6.02z"/><path stroke="null" fill="#E2A610" d="M58.806 113.906c-2.55-1.411-4.584-1.306-5.26-1.325-.184 1.707-.306 2.896-.306 2.896 1.91.05 2.453.524 5.218 1.368 0-.006.14-1.165.348-2.94v.001zm17.707-1.214c-.94-.012-2.338-.018-3.424.123l-.494.08.195 3.118c.19-.068 1.086-.536 4.273-.4l-.55-2.921z"/><path stroke="null" fill="#00796B" d="m78.773 55.063-6.53 6.297 6.11 34.167c5.17-1.842 8.703-5.293 11.541-7.074 1.648-1.035 3.437-1.596 3.437-1.596L78.773 55.063z"/><path stroke="null" fill="#26A69A" d="m45.075 99.844-1.899 15.62c3.913 2.533 8.564.74 11.194 1.356 2.631.616 5.2 2.532 9.785 2.532s5.872-1.916 8.502-2.532c2.631-.616 6.238 1.232 11.805-2.101l-8.564-46.983c.03-.062-5.444 11.048-13.36 19.304-7.502 7.82-17.464 12.804-17.464 12.804h.001z"/><path stroke="null" fill="#00796B" d="M51.221 98.49c.5-.301 2.765-1.515 2.557 1.77-.33 5.113-1.397 14.713-1.397 14.713s1.196-.012 1.983.265l3.235 1.146s1.288-11.689 2.082-17.511c1.13-8.263 4.285-10.61 5.23-11.19.94-.573 2.491-.69 3.37 1.319 1.88 4.307 3.424 15.915 3.711 18.398.287 2.484.903 2.145.928-.166.073-7.486.232-25.164.836-29.89 1.13-8.836 2.533-9.502 2.533-9.502l-.397-2.162c.012-.025.525-.031-.793-.031-2.124 4.516-6.696 13.093-13.618 20.093-10.498 10.623-16.406 12.046-16.406 12.046l-.489 4.073s1.703-.37 6.635-3.37v-.001z"/><path stroke="null" fill="#00695C" d="m80.971 59.826 4.26 9.341s-4.535-4.153-5.072.894c-.53 5.046-1.642 10.006-1.642 10.006l-5.573-21.282 8.027 1.041z"/><path fill="#f9debe" d="M87.971 90.63c-.18 0-.34-.05-.46-.14-.53-.4-.44-2.61-.41-3.34.04-1-.53-2.23-1.08-2.81-.28-.29-.58-.44-.88-.44h-.04l-.11.01-.13.04c-.67.15-.68.98-.69 1.79-.01.56-.02 1.18-.2 1.71-.1.3-.47.31-.54.31-.44 0-.92-.28-.94-.9 0-.08-.02-.18-.06-.33-.07-.35-.23-1.07-.15-2.54.1-1.76.31-3.77 1.11-5.38l.1-.19-5.36-19.3-2.1-6.87c.76-.4 2.6-1.25 4.45-1.25 2.15 0 3.66 1.14 4.5 3.38 1.38 3.6 2.23 7.95 2.68 13.7.35 4.42.94 8.1 1.21 8.96.08.25.24.76.24.76.31 1.01.43 1.39 1.72 4.1.68 1.43.41 2.87.09 4.54-.11.56-.21 1.12-.29 1.7-.19 1.27-1.67 2.49-2.66 2.49z"/><path stroke="null" fill="#FFCA28" d="M64.155 119.348c-4.67-.018-6.794-1.596-10.212-2.594-3.35-.339-7.483.992-10.889-1.356l.458-3.099c3.357 2.39 7.611 1.06 11.158 1.676 3.302.881 5.401 2.533 9.418 2.533 3.973.03 4.681-2.015 8.136-2.471 4.236-.555 6.824.998 11.72-2.496l.646 3.235c-5.383 3.235-7.66 1.645-11.634 2.095-3.094.943-4.065 2.459-8.8 2.477z"/><path stroke="null" fill="#C62828" d="M87.76 56.11c-1.526-1.977-4.602-6.192-7.788-8.188-3.852-2.348-7.99-3.79-7.99-3.79s-3.076 5.256-7.642 6.113-8.136-1.917-8.99-3.087c-.916-1.356-1.404-2.841-2.326-2.533-1.526.555-3.913 1.208-6.482 3.087-2.155 1.578-6.244 6.427-7.77 8.399-.367.43-.306 1.109.122 1.478l5.2 5.25c.427.431 1.16.431 1.593 0l3.73-3.58.61 2.656c.732 3.087.977 4.442.915 5.804 0 .056 24.647.056 24.647 0-.06-1.355.183-2.717.916-5.804l.61-2.656 3.73 3.58c.427.431 1.16.431 1.593 0l5.2-5.25a1.07 1.07 0 0 0 .122-1.478v-.001z"/><path stroke="null" fill="#C62828" d="M84.129 58.92c-1.312-2.49-3.957-7.8-6.695-10.315-3.312-2.957-6.87-4.773-6.87-4.773s-2.644 6.621-6.57 7.7-6.994-2.414-7.728-3.89c-.787-1.707-1.207-3.577-2-3.19-1.31.7-3.363 1.522-5.572 3.89-1.852 1.986-5.368 8.095-6.68 10.579-.315.543-.263 1.397.105 1.862l4.471 6.614c.367.544.997.544 1.37 0l3.206-4.51.524 3.345c.63 3.889.84 5.596.787 7.312 0 .07 21.188.07 21.188 0-.052-1.707.158-3.423.787-7.312l.525-3.345 3.207 4.51c.367.544.996.544 1.37 0l4.47-6.614c.367-.458.42-1.319.105-1.862z"/><path stroke="null" fill="#80DDD2" d="M73.219 44.738c-8.218 8.33-23.837 20.306-23.837 20.306l1.24 5.455-1.64 3.372.04 7.25-1.769 3.77-2.148 14.922s16.044-7.161 24.79-20.867c9.523-14.632 10.513-21.82 12.005-30.444 0 0-5.086-2.969-8.68-3.764h-.001z"/><path stroke="null" fill="#29B3A6" d="M48.386 65.596s.886 4.823.94 5.262-1.6 2.59-1.6 3.424c0 .835-.017 5.773-.017 6.362 0 .587-1.55 3.135-1.624 3.71-.073.572-1.764 14.375-1.764 14.375s1.972-.288 4.304-1.622c.56-9.91-.507-13.167 1.52-14.848 2.026-1.677 6.005-4.36 11.04-12.843.215-.353.465-1.087-.036-1.2-.415-.097-.897.786-.988.913-1.465 2.071-3.79 4.967-8.332 7.243-1.953.98-1.862-3.694-.958-4.18 1.642-.956 6.14-4.565 9.32-8.584.11-.144.684-.792.427-1.033-.232-.21-.866.403-.866.41 0 0-4.316 3.927-6.196 4.684-2.221.943-1.983-1.184-2.136-4.446-2.325 1.85-3.034 2.373-3.034 2.373z"/><path stroke="null" d="m52.533 90.733-1.776-2.218 1.776-2.218 1.783 2.218-1.783 2.218z" fill="#FFE36C"/><path d="m47.558 93.617-1.44-1.806 1.44-1.799 1.447 1.8-1.447 1.805z" stroke="null" fill="#FFCA28"/><path stroke="null" d="m62.018 81.916-2.142-2.594 2.142-2.594 2.076 2.655-2.076 2.533zm8.704-12.435-2.142-2.594 2.142-2.588 2.076 2.65-2.076 2.532zm3.022-6.057-1.856-2.249 1.856-2.242 1.8 2.298-1.8 2.193zM57.46 86.802l-2.02-2.446 1.96-2.44 2.02 2.44-1.96 2.446z" fill="#FFE36C"/><path d="m49.701 109.904-2.142-2.594 2.142-2.594 2.082 2.594-2.082 2.594zm27.626 0-2.143-2.594 2.143-2.594 2.142 2.594-2.142 2.594z" stroke="null" fill="#FFCA28"/><path d="m63.938 113.669-2.137-2.594 2.136-2.594 2.143 2.594-2.142 2.594z" stroke="null" fill="#FFE36C"/><path stroke="null" fill="#FFA996" d="M56.873 51.465a8.326 8.326 0 0 1-3.247-2.872.524.524 0 0 1 .19-.74l1.226-.69a.514.514 0 0 1 .66.13c.634.82 1.214 1.399 2.135 1.947.226.13.312.413.214.653l-.488 1.294a.5.5 0 0 1-.69.278z"/><path stroke="null" d="m77.233 57.47-1.727-2.01 1.68-1.921 1.727 1.964-1.68 1.966zm1.558-5.51-1.485-1.734 1.439-1.653 1.49 1.69-1.444 1.698zM67.27 75.349l-2.395-2.733 2.331-2.732 2.397 2.733-2.332 2.732zm6.28-30.092-1.431-.442c-9.28 8.74-23.012 18.553-23.012 18.553-.807.642-.893 1.378-.702 2.5 10.676-6.17 25.143-20.61 25.143-20.61h.001z" fill="#FFE36C"/><path fill="#FFE36C" d="M80.832 47.601s-.108 12.348-12.389 30.856C59.664 91.682 48.23 97.647 44.81 99.253c-.09.838-.19 1.741-.26 2.417 0 0 15.09-5.803 25.515-22.186C81.595 61.365 82.116 48.38 82.116 48.38c-.686-.494-.934-.643-1.284-.78v.001z" stroke="null"/><path fill="#FFE36C" d="m77.719 46.24-.916-.41c-7.456 23.38-23.544 37.303-30.968 42.845-.02.083-.032.16-.051.243a63.69 63.69 0 0 0-.35 2.335C52.12 86.75 69.443 72.915 77.719 46.24z" stroke="null"/><path stroke="null" d="m77.608 57.157-1.727-2.009 1.68-1.922 1.727 1.965-1.68 1.966zm1.558-5.509-1.485-1.734 1.439-1.654 1.49 1.691-1.444 1.697zm-11.52 23.387-2.395-2.732 2.331-2.733 2.397 2.734-2.332 2.731zm6.28-30.091-1.432-.443c-9.28 8.74-23.01 18.553-23.01 18.553-.808.642-.894 1.378-.703 2.5 10.676-6.169 25.143-20.61 25.143-20.61h.001z" fill="#FFE36C"/></svg>
