<svg version="1.1" id="Layer_1" xmlns="http://www.w3.org/2000/svg" xmlns:xlink="http://www.w3.org/1999/xlink" x="0px" y="0px"
	 viewBox="0 0 128 128" style="enable-background:new 0 0 128 128;" xml:space="preserve">
<g>
  <title>Layer 1</title>
  <g id="svg_2" stroke="null" fill="#543930" transform="rotate(80 70.346 36.186)">
   <ellipse id="svg_3" ry="6.729" rx="7.009" cy="36.186" cx="64.36496" fill="#ad882b"/>
   <ellipse id="svg_4" ry="4.206" rx="4.112" cy="36.279" cx="72.49496" fill="#ad882b"/>
   <ellipse id="svg_5" ry="3.084" rx="4.766" cy="36.279" cx="78.56996" fill="#ad882b"/>
  </g>
  <ellipse id="svg_6" ry="10.015" rx="17.75145" cy="30.52927" cx="61.96323" fill="#ad882b" stroke="null"/>
  <path id="svg_7" d="m38.34286,90.813c-0.99,0 -2.47,-1.23 -2.64,-2.48c-0.08,-0.59 -0.19,-1.16 -0.29,-1.7c-0.32,-1.67 -0.59,-3.12 0.08,-4.55c1.28,-2.69 1.41,-3.1 1.71,-4.07c0.07,-0.22 0.14,-0.47 0.25,-0.78c0.27,-0.81 0.86,-4.47 1.22,-8.96c0.46,-5.76 1.31,-10.11 2.67,-13.69c0.85,-2.24 2.37,-3.37 4.51,-3.37c1.86,0 3.7,0.85 4.45,1.24l-2.1,6.85l-5.36,19.31l0.1,0.19c0.81,1.61 1.01,3.62 1.11,5.38c0.07,1.47 -0.08,2.19 -0.16,2.54c-0.03,0.15 -0.05,0.25 -0.05,0.33c-0.03,0.62 -0.51,0.9 -0.94,0.9c-0.28,0 -0.48,-0.11 -0.54,-0.31c-0.18,-0.52 -0.19,-1.15 -0.2,-1.7c-0.01,-0.81 -0.03,-1.65 -0.77,-1.82l-0.18,-0.02c-0.33,0 -0.62,0.15 -0.91,0.44c-0.55,0.57 -1.12,1.81 -1.08,2.8c0.03,0.73 0.12,2.94 -0.42,3.35c-0.12,0.08 -0.28,0.12 -0.46,0.12z" fill="#e1bc96"/>
  <path id="svg_8" d="m68.69696,121.405l-5.15,-35.06c-0.15,-0.76 -0.81,-1.27 -1.56,-1.27s-1.41,0.51 -1.55,1.22l-5.17,35.11l-6.2,0.24l-1.03,-46.03l27.88,0l-1.02,46.03l-6.2,-0.24z" fill="#e1bc96"/>
  <path id="svg_9" d="m71.99696,124.1l4.45,0c0.82,-0.02 1.41,-0.96 1.17,-1.78c-0.74,-2.49 -2.99,-4.32 -5.62,-4.32c-2.68,0 -4.96,1.9 -5.66,4.46c-0.22,0.82 0.39,1.63 1.21,1.63l4.45,0l0,0.01zm-20.04,0l-4.45,0c-0.82,-0.02 -1.41,-0.96 -1.17,-1.78c0.74,-2.49 2.99,-4.32 5.62,-4.32c2.68,0 4.96,1.9 5.66,4.46c0.22,0.82 -0.39,1.63 -1.21,1.63l-4.45,0l0,0.01z" fill="#424242"/>
  <path id="svg_10" d="m71.64696,44.865c-2.41,-0.64 -5.58,-1.06 -9.54,-1.06l-0.16,0c-3.96,0 -7.18,0.42 -9.57,1.06c-7.55,2.01 -9.46,6.56 -11.71,12.65l7.37,3.2l0,17.28l28,0l0,-17.28l7.28,-3.2c-2.25,-6.09 -4.12,-10.64 -11.67,-12.65z" fill="#e1bc96"/>
  <path id="svg_11" d="m61.97696,40.715l-5,0l0,5.3c0,2.4 2.03,4.34 4.54,4.34l0.91,0c2.51,0 4.54,-1.94 4.54,-4.34l0,-5.3l-4.99,0z" fill="#c58f6a"/>
  <path id="svg_12" d="m62.21086,8.385c7.63,0 14.69,5.67 14.69,17.7c0,9.66 -5.98,15.38 -11.19,17.22c-1.24,0.44 -2.44,0.66 -3.5,0.66s-2.25,-0.22 -3.48,-0.65c-5.21,-1.84 -11.21,-7.55 -11.21,-17.23c0,-12.03 7.07,-17.7 14.69,-17.7z" fill="#e1bc96"/>
  <path id="svg_13" d="m62.22696,4.005c-18.18,0 -18.03,16.81 -18.03,17.08c0,3.44 0.08,7.33 0.33,11.23l2.98,-0.01c-0.03,-1.29 0.88,-9.3 3.58,-9.9c9.91,-2.23 15.52,-7.49 15.52,-7.49c1.46,3.18 6.02,6.29 7.66,7.47c1.35,0.97 1.76,8.22 1.73,9.92l3.42,0c0,-0.02 0.01,-0.05 0.01,-0.07c0.25,-3.88 0.33,-7.74 0.33,-11.16c0,-0.26 0.65,-17.07 -17.53,-17.07z" fill="#ad882b"/>
  <path id="svg_14" d="m65.66696,35.985c-1.4,0.83 -5.97,0.83 -7.37,0c-0.8,-0.48 -1.62,0.25 -1.29,0.98c0.33,0.72 2.82,2.38 4.98,2.38c2.16,0 4.62,-1.66 4.95,-2.38c0.34,-0.73 -0.47,-1.46 -1.27,-0.98z" fill="#795548"/>
  <path id="svg_15" d="m63.66696,32.395a0.737,0.737 0 0 0 -0.14,-0.04l-3.1,0c-0.05,0.01 -0.1,0.02 -0.14,0.04c-0.28,0.11 -0.44,0.4 -0.3,0.72s0.75,1.18 1.99,1.18s1.86,-0.87 1.99,-1.18c0.14,-0.31 -0.02,-0.6 -0.3,-0.72z" fill="#c5906a"/>
  <g id="svg_16" fill="#404040">
   <ellipse id="svg_17" cx="54.77696" cy="28.325" rx="2.16" ry="2.24"/>
   <ellipse id="svg_18" cx="69.17696" cy="28.325" rx="2.16" ry="2.24"/>
  </g>
  <path id="svg_19" d="m65.97696,24.315c0.41,-0.54 1.36,-1.34 3.21,-1.34s2.8,0.79 3.21,1.34c0.18,0.24 0.14,0.52 0.01,0.69c-0.12,0.16 -0.46,0.3 -0.84,0.17c-0.38,-0.13 -1.13,-0.51 -2.37,-0.52c-1.25,0.01 -1.99,0.39 -2.37,0.52c-0.38,0.13 -0.73,-0.01 -0.84,-0.17a0.54,0.54 0 0 1 -0.01,-0.69zm-14.41,0c0.41,-0.54 1.36,-1.34 3.21,-1.34s2.8,0.79 3.21,1.34c0.18,0.24 0.14,0.52 0.01,0.69c-0.12,0.16 -0.46,0.3 -0.84,0.17c-0.38,-0.13 -1.13,-0.51 -2.37,-0.52c-1.25,0.01 -1.99,0.39 -2.37,0.52c-0.38,0.13 -0.73,-0.01 -0.84,-0.17a0.54,0.54 0 0 1 -0.01,-0.69z" fill="#ad882b"/>
  <path id="svg_52" fill="#C62828" d="m90.21831,55.19262c-1.71093,-2.09525 -5.16015,-6.55991 -8.73256,-8.67475c-4.31837,-2.48689 -8.95841,-4.01427 -8.95841,-4.01427s-3.44923,5.56776 -8.56831,6.47506s-9.12265,-2.02998 -10.08077,-3.27016c-1.02655,-1.436 -1.57405,-3.00908 -2.60745,-2.68271c-1.71093,0.58745 -4.38681,1.27934 -7.26801,3.27016c-2.41583,1.67098 -7.0011,6.80795 -8.71203,8.89667c-0.41062,0.45691 -0.34218,1.17491 0.13687,1.56655l5.83084,5.56124c0.47906,0.45691 1.3003,0.45691 1.78621,0l4.1815,-3.79235l0.68437,2.81326c0.82125,3.27016 1.09499,4.70616 1.02655,6.14869c0,0.05875 27.63486,0.05875 27.63486,0c-0.06843,-1.436 0.20531,-2.87853 1.02655,-6.14869l0.68437,-2.81326l4.1815,3.79235c0.47906,0.45691 1.3003,0.45691 1.78621,0l5.83084,-5.56124c0.47906,-0.38511 0.5475,-1.10964 0.13687,-1.56655l-0.00001,0l0.00001,0z" stroke="null"/>
  <path id="svg_2" fill="#00796B" d="m79.93223,54.08299l-7.32276,6.67088l6.85055,36.19372c5.79661,-1.95166 9.75912,-5.60692 12.94144,-7.49331c1.8478,-1.09658 3.853,-1.69056 3.853,-1.69056l-16.32223,-33.68073l0.00001,0l-0.00001,0z" stroke="null"/>
  <path id="svg_3" fill="#00695C" d="m82.39596,59.12856l4.7769,9.89534c0,0 -5.08487,-4.39938 -5.68712,0.94645c-0.59541,5.34584 -1.84096,10.60029 -1.84096,10.60029l-6.2483,-22.5452l8.99947,1.10311l0.00001,0.00001z" stroke="null"/>
  <path id="svg_26" d="m86.80496,89.98274c-0.18,0 -0.34,-0.05 -0.46,-0.14c-0.53,-0.4 -0.44,-2.61 -0.41,-3.34c0.04,-1 -0.53,-2.23 -1.08,-2.81c-0.28,-0.29 -0.58,-0.44 -0.88,-0.44l-0.04,0l-0.11,0.01l-0.13,0.04c-0.67,0.15 -0.68,0.98 -0.69,1.79c-0.01,0.56 -0.02,1.18 -0.2,1.71c-0.1,0.3 -0.47,0.31 -0.54,0.31c-0.44,0 -0.92,-0.28 -0.94,-0.9c0,-0.08 -0.02,-0.18 -0.06,-0.33c-0.07,-0.35 -0.23,-1.07 -0.15,-2.54c0.1,-1.76 0.31,-3.77 1.11,-5.38l0.1,-0.19l-5.36,-19.3l-2.1,-6.87c0.76,-0.4 2.6,-1.25 4.45,-1.25c2.15,0 3.66,1.14 4.5,3.38c1.38,3.6 2.23,7.95 2.68,13.7c0.35,4.42 0.94,8.1 1.21,8.96c0.08,0.25 0.24,0.76 0.24,0.76c0.31,1.01 0.43,1.39 1.72,4.1c0.68,1.43 0.41,2.87 0.09,4.54c-0.11,0.56 -0.21,1.12 -0.29,1.7c-0.19,1.27 -1.67,2.49 -2.66,2.49z" fill="#e1bc96"/>
  <path id="svg_4" fill="#E2A610" d="m95.63168,86.58881c-2.67589,0.58745 -4.79744,2.09525 -7.13114,3.6618c-2.60061,1.76889 -5.41337,3.66832 -9.30743,4.79755l0.51328,2.53258c5.00274,-1.2924 8.45882,-3.62264 11.26473,-5.49597c2.12839,-1.436 3.97619,-2.68271 5.83084,-3.07435l-1.17027,-2.42162l-0.00001,0.00001z" stroke="null"/>
  <path id="svg_5" fill="#C62828" d="m87.72119,57.11898c-1.54975,-2.20507 -4.67404,-6.90375 -7.90991,-9.12944c-3.91156,-2.61724 -8.11449,-4.22468 -8.11449,-4.22468s-3.1243,5.8596 -7.76114,6.81446s-8.26325,-2.13638 -9.13112,-3.44157c-0.92984,-1.51127 -1.42577,-3.1668 -2.36182,-2.82333c-1.54975,0.61824 -3.97355,1.3464 -6.58333,3.44157c-2.18825,1.75857 -6.34156,7.16479 -7.89132,9.363c-0.37194,0.48086 -0.30995,1.23649 0.12398,1.64866l5.28155,5.85274c0.43393,0.48086 1.17781,0.48086 1.61794,0l3.78758,-3.99113l0.6199,2.96072c0.74388,3.44157 0.99184,4.95284 0.92984,6.47098c0,0.06183 25.03153,0.06183 25.03153,0c-0.06198,-1.51127 0.18597,-3.02941 0.92984,-6.47098l0.6199,-2.96072l3.78758,3.99113c0.43393,0.48086 1.17781,0.48086 1.61794,0l5.28155,-5.85274c0.43393,-0.4053 0.49592,-1.1678 0.12398,-1.64866l-0.00001,0l0.00001,0l0.00002,-0.00001z" stroke="null"/>
  <path id="svg_6" fill="#26A69A" d="m42.14816,99.34309l-2.12839,16.54664c4.38681,2.68271 9.60171,0.78327 12.55134,1.436c2.94963,0.65272 5.83084,2.68271 10.97045,2.68271s6.58364,-2.02998 9.53328,-2.68271c2.94963,-0.65272 6.99427,1.30546 13.23572,-2.2258l-9.60171,-49.77045c0.03422,-0.06527 -6.10458,11.7034 -14.98086,20.44994c-8.41091,8.28311 -19.57982,13.56368 -19.57982,13.56368l-0.00001,-0.00001z" stroke="null"/>
  <path id="svg_7" fill="#00796B" d="m49.03977,100.0872c0.56118,-0.31983 3.1002,-1.60571 2.86751,1.87333c-0.36956,5.41764 -1.56721,15.58713 -1.56721,15.58713s1.34137,-0.01306 2.2242,0.28067c0.99234,0.33289 3.62716,1.21407 3.62716,1.21407s1.44402,-12.38223 2.3337,-18.55051c1.26609,-8.75307 4.80428,-11.23996 5.86505,-11.85352c1.05393,-0.60704 2.79223,-0.73105 3.77772,1.39683c2.10786,4.56256 3.83931,16.85995 4.16097,19.49043c0.32166,2.63049 1.01286,2.27149 1.04025,-0.17624c0.08212,-7.93064 0.26006,-26.65738 0.93759,-31.6638c1.26609,-9.36011 2.84013,-10.06505 2.84013,-10.06505l-0.44484,-2.29107c0.01369,-0.02611 0.58856,-0.03264 -0.88968,-0.03264c-2.38161,4.78449 -7.50754,13.87045 -15.2683,21.28544c-11.77117,11.25302 -18.39587,12.76082 -18.39587,12.76082l-0.5475,4.31452c0,0 1.90939,-0.39164 7.43911,-3.57042l0.00001,0.00001z" stroke="null"/>
  <path id="svg_8" fill="#FFCA28" d="m63.46603,120.41353c-5.23543,-0.01958 -7.61704,-1.69056 -11.44951,-2.74798c-3.75719,-0.359 -8.39037,1.05089 -12.20916,-1.436l0.51328,-3.28322c3.76404,2.53258 8.53409,1.12269 12.51028,1.77542c3.70244,0.9334 6.05668,2.68271 10.55983,2.68271c4.45525,0.03264 5.24912,-2.13442 9.12265,-2.61744c4.74953,-0.58745 7.65126,1.05742 13.1399,-2.64355l0.72543,3.42682c-6.03614,3.42682 -8.58884,1.74278 -13.04409,2.21927c-3.46975,0.99867 -4.5579,2.60438 -9.86861,2.62396l0.00001,0l-0.00001,0.00001z" stroke="null"/>
  <path id="svg_9" fill="#FF7555" d="m59.98284,48.44342c-4.45525,-0.58745 -6.10458,-3.85762 -6.78895,-5.23487c-0.20531,-0.39164 -0.68437,-0.58745 -1.16343,-0.45691l-2.24474,0.80285c0,0 1.35506,3.5182 3.4766,5.28057c4.1815,3.53125 10.35451,3.46598 14.05696,1.30546l0.5475,-4.18398c-2.94279,2.09525 -4.04463,2.9438 -7.88395,2.48689l0.00001,-0.00001z" stroke="null"/>
  <path id="svg_10" fill="#80DDD2" d="m72.06882,42.32084c-8.74624,8.62252 -25.3696,21.02435 -25.3696,21.02435l1.32083,5.64609l-1.74514,3.49209l0.04106,7.50636l-1.88202,3.90331l-2.2858,15.45005c0,0 17.07503,-7.41498 26.38246,-21.60527c10.13552,-15.1498 11.18945,-22.59089 12.77719,-31.5202c0,0 -5.41337,-3.07435 -9.23899,-3.89678l0,0.00001l0.00001,-0.00001z" stroke="null"/>
  <path id="svg_11" fill="#29B3A6" d="m46.69922,63.34519c0,0 0.99234,5.2414 1.05393,5.71789s-1.79305,2.81326 -1.79305,3.72055c0,0.90729 -0.02053,6.27271 -0.02053,6.91238c0,0.63968 -1.7383,3.40724 -1.82042,4.03385c-0.08212,0.62009 -1.97783,15.61977 -1.97783,15.61977s2.21052,-0.31331 4.82481,-1.76236c0.62962,-10.77 -0.56802,-14.30778 1.70408,-16.13542c2.27211,-1.82111 6.7342,-4.7388 12.38025,-13.95531c0.23953,-0.38511 0.52012,-1.18143 -0.04106,-1.30546c-0.46538,-0.10443 -1.00602,0.85508 -1.10868,0.99215c-1.64249,2.25191 -4.24994,5.39806 -9.34165,7.87189c-2.18998,1.06394 -2.08733,-4.01427 -1.07446,-4.54298c1.84096,-1.03784 6.88476,-4.96072 10.45033,-9.32747c0.12318,-0.15665 0.7665,-0.8616 0.47906,-1.12269c-0.26006,-0.22846 -0.9718,0.43732 -0.9718,0.44386c0,0 -4.8385,4.26884 -6.94636,5.09127c-2.4911,1.02478 -2.2242,-1.28588 -2.39529,-4.83018c-2.60745,2.0104 -3.40132,2.57828 -3.40132,2.57828l-0.00001,-0.00001l0,-0.00001z" stroke="null"/>
  <g id="svg_12" stroke="null">
   <polygon id="svg_13" fill="#FFE36C" points="50.511146545410156,91.86937609314919 48.51963806152344,89.51954546570778 50.511146545410156,87.1697224676609 52.509517669677734,89.51954546570778 " stroke="null"/>
  </g>
  <polygon id="svg_14" fill="#FFCA28" points="44.93354415893555,94.9241398870945 43.31842803955078,93.01163378357887 44.93354415893555,91.10568132996559 46.555503845214844,93.01163378357887 " stroke="null"/>
  <g id="svg_15" stroke="null">
   <polygon id="svg_16" fill="#FFE36C" points="61.14626693725586,82.52884569764137 58.74412536621094,79.78085985779762 61.14626693725586,77.03287401795387 63.47312545776367,79.84612932801247 " stroke="null"/>
  </g>
  <g id="svg_17" stroke="null">
   <polygon id="svg_18" fill="#FFE36C" points="70.9053955078125,69.35681048035622 68.50325775146484,66.60881701111794 70.9053955078125,63.867361932992935 73.23225402832031,66.67409411072731 " stroke="null"/>
  </g>
  <g id="svg_19" stroke="null">
   <polygon id="svg_20" fill="#FFE36C" points="74.29302978515625,62.940489679574966 72.21253204345703,60.55803194642067 74.29302978515625,58.18210878968239 76.3119125366211,60.616778284311295 " stroke="null"/>
  </g>
  <g id="svg_21" stroke="null">
   <polygon id="svg_22" fill="#FFE36C" points="56.034019470214844,87.70497789978981 53.768760681152344,85.11364641785622 55.96558380126953,82.52884569764137 58.23085021972656,85.11364641785622 " stroke="null"/>
  </g>
  <polygon id="svg_23" fill="#FFCA28" points="47.33568572998047,110.19795885682106 44.93354415893555,107.44997301697731 47.33568572998047,104.70198717713356 49.66938400268555,107.44997301697731 " stroke="null"/>
  <polygon id="svg_24" fill="#FFCA28" points="78.3102798461914,110.19795885682106 75.90813446044922,107.44997301697731 78.3102798461914,104.70198717713356 80.71240997314453,107.44997301697731 " stroke="null"/>
  <polygon id="svg_26" fill="#FFE36C" points="63.507347106933594,114.18611803650856 61.11205291748047,111.43813219666481 63.507347106933594,108.69014635682106 65.90948486328125,111.43813219666481 " stroke="null"/>
  <path id="svg_27" fill="#FF7555" d="m47.14126,63.00715l-10.0825,-9.96392c-0.67803,0.74345 -1.56741,1.99962 -1.92844,2.4269c-0.52834,0.59818 -0.44028,1.53817 0.17611,2.0509l7.50244,7.28068c0.6164,0.59818 1.67307,0.59818 2.29829,0c-0.08805,0.08545 2.03412,-1.79454 2.03412,-1.79454l-0.00001,-0.00001l-0.00001,-0.00001z" stroke="null"/>
  <path id="svg_28" fill="#FF7555" d="m78.72818,62.65479l9.57589,-9.98348c0.5702,0.6673 1.56803,1.9759 1.84474,2.43521c0.52826,0.68462 0.41925,1.55992 -0.1677,2.0799l-7.1442,7.38362c-0.58696,0.60664 -1.59318,0.60664 -2.18854,0c0.10062,0.078 -1.92021,-1.91524 -1.92021,-1.91524l0.00001,0l0.00001,-0.00001z" stroke="null"/>
  <path id="svg_29" fill="#FFA996" d="m55.37703,50.27106c-1.47139,-0.68536 -2.73064,-1.74278 -3.64085,-3.04171c-0.18478,-0.26762 -0.08212,-0.62662 0.21215,-0.78327l1.37558,-0.73105c0.24637,-0.13055 0.56802,-0.07833 0.73912,0.13707c0.71174,0.86812 1.3619,1.48169 2.39529,2.06262c0.25321,0.13707 0.34903,0.43732 0.23953,0.69189l-0.5475,1.37073c-0.11634,0.29373 -0.47906,0.43732 -0.77334,0.29373l0.00001,0l0.00001,-0.00001z" stroke="null"/>
  <path id="svg_30" fill="#FFA996" d="m39.24643,59.55936l-1.88202,-1.83417c-0.23269,-0.22192 -0.24637,-0.5744 -0.04106,-0.82244l0.95812,-1.12922c0.24637,-0.2872 0.69805,-0.30678 0.96496,-0.04569l2.16261,2.10178c0.27375,0.26762 0.23953,0.71147 -0.08212,0.9334l-1.23871,0.8616c-0.26006,0.18276 -0.61593,0.15665 -0.84177,-0.06527l-0.00001,0.00001z" stroke="null"/>
  <g id="svg_31" stroke="null">
   <polygon id="svg_32" fill="#FFE36C" points="76.59934997558594,57.294398218393326 74.79945373535156,55.192618280649185 76.55144500732422,53.182215601205826 78.3513412475586,55.23831072449684 " stroke="null"/>
  </g>
  <g id="svg_33" stroke="null">
   <polygon id="svg_34" fill="#FFE36C" points="78.45399475097656,51.5308178961277 76.90731811523438,49.716231256723404 78.40608978271484,47.986510187387466 79.95960998535156,49.755396753549576 " stroke="null"/>
  </g>
  <g id="svg_35" stroke="null">
   <polygon id="svg_36" fill="#FFE36C" points="66.45014190673828,76.00156298279762 63.952178955078125,73.14261522889137 66.38169860839844,70.28368273377419 68.87965393066406,73.14261522889137 " stroke="null"/>
  </g>
  <path id="svg_37" fill="#FFF59D" d="m61.15311,117.85444l-0.13687,1.5078c-0.02053,0.30678 0.19847,0.58093 0.52012,0.62662c0.9718,0.13707 3.01807,0.22192 5.03696,-0.13707c0.31481,-0.05875 0.52696,-0.35247 0.47906,-0.65926l-0.27375,-1.5796c-0.04791,-0.32637 -0.36956,-0.5744 -0.7049,-0.5026c-2.03942,0.42428 -3.45607,0.28067 -4.24994,0.20234c-0.34903,-0.03916 -0.65015,0.20888 -0.67068,0.54177l-0.00001,0.00001l0.00001,-0.00001z" stroke="null"/>
  <path id="svg_38" fill="#FFA996" d="m86.91964,58.88706l1.88202,-1.83417c0.23269,-0.22192 0.24637,-0.5744 0.04106,-0.82244l-0.95812,-1.12922c-0.24637,-0.2872 -0.69805,-0.30678 -0.96496,-0.04569l-2.16261,2.10178c-0.27375,0.26762 -0.23953,0.71147 0.08212,0.9334l1.23871,0.8616c0.26006,0.18276 0.61593,0.15665 0.84177,-0.06527l0.00001,0.00001z" stroke="null"/>
  <path id="svg_39" fill="#FFE36C" d="m72.99271,42.53624l-1.49193,-0.46344c-9.67015,9.14471 -23.98033,19.41211 -23.98033,19.41211c-0.84177,0.67231 -0.93074,1.44253 -0.73228,2.61744c11.12786,-6.45548 26.20453,-21.56611 26.20453,-21.56611l0.00001,0z" stroke="null"/>
  <path id="svg_40" fill="#FFE36C" d="m81.0409,46.17846c0,0 -0.11634,12.40182 -13.33837,30.99149c-9.45115,13.283 -21.76296,19.27503 -25.44488,20.88728c-0.09581,0.84202 -0.20531,1.74931 -0.28059,2.42815c0,0 16.24695,-5.82886 27.47062,-22.28411c12.41447,-18.19803 12.97566,-31.23952 12.97566,-31.23952c-0.73912,-0.49607 -1.00602,-0.6462 -1.38243,-0.78327l-0.00001,-0.00001l0,-0.00001z" stroke="null"/>
  <path id="svg_41" fill="#FFE36C" d="m77.91333,44.45526l-0.98549,-0.41774c-8.02082,23.85065 -25.32854,38.054 -33.31513,43.70662c-0.02053,0.08485 -0.03422,0.16318 -0.05475,0.24804c-0.11634,0.63314 -0.24637,1.46211 -0.37641,2.38246c7.19273,-4.5952 25.82812,-18.70716 34.73178,-45.91936l-0.00001,-0.00001l0.00001,-0.00001z" stroke="null"/>
  <path id="svg_42" fill="#FFCA28" d="m53.52923,57.01373c-3.55872,2.70882 -6.39202,4.60825 -6.39202,4.60825c-0.84177,0.67231 -0.5475,1.30546 -0.34903,2.48037c2.21052,-1.28588 4.58528,-2.91117 6.96004,-4.69311c-0.0616,-0.80285 -0.14372,-1.66445 -0.219,-2.39551l0.00001,0z" stroke="null"/>
  <path id="svg_43" fill="#FFCA28" d="m47.06878,95.64865c-1.77251,0.96603 -3.90091,2.01693 -4.80428,2.41509c-0.09581,0.84202 -0.20531,1.74931 -0.28059,2.42815c0,0 2.32686,-0.92687 5.08487,-2.36288l0,-2.48037l-0.00001,0.00001l0.00001,0z" stroke="null"/>
  <path id="svg_44" fill="#FFCA28" d="m43.61271,87.74413c-0.02053,0.08485 -0.03422,0.16318 -0.05475,0.24804c-0.11634,0.63314 -0.24637,1.46211 -0.37641,2.38246c0.84862,-0.54177 2.87436,-1.96471 4.00356,-2.77409l0.06843,-2.57828c-0.97865,0.75717 -2.8333,2.14748 -3.64085,2.72187l0.00002,0z" stroke="null"/>
  <path id="svg_45" fill="#FFCA28" d="m67.39456,45.79335c0.50644,0.11749 2.03258,0.18929 2.03258,0.18929c1.14289,-1.10311 3.56557,-3.4464 3.56557,-3.4464l-1.49193,-0.46344c-0.62962,0.60051 -3.43554,3.12003 -4.10622,3.72055z" stroke="null"/>
  <path id="svg_46" fill="#FFCA28" d="m74.79945,49.57917l1.14289,0.31331c0.41062,-0.92687 1.72461,-4.68658 1.97099,-5.43069l-0.98549,-0.42428c-0.23953,0.71147 -2.12839,5.54165 -2.12839,5.54165l0,0.00001z" stroke="null"/>
  <path id="svg_47" fill="#FFCA28" d="m79.9596,52.44464l1.38927,0.68536c0.90337,-3.00908 1.08131,-6.16827 1.08131,-6.16827s-0.90337,-0.68536 -1.38927,-0.89424c0,0 -0.15057,2.89811 -1.08131,6.37715z" stroke="null"/>
  <path id="svg_48" fill="#E2A610" d="m56.58152,115.92889c-2.86067,-1.49474 -5.13962,-1.38378 -5.89927,-1.40337c-0.20531,1.80805 -0.34218,3.06782 -0.34218,3.06782c2.14208,0.05222 2.75117,0.55482 5.85136,1.44905c0,-0.00652 0.1574,-1.23365 0.39009,-3.11351l0,0.00001z" stroke="null"/>
  <path stroke="null" id="svg_49" fill="#E2A610" d="m76.43509,114.64302c-1.05393,-0.01306 -2.62113,-0.01958 -3.83931,0.13055c-0.04791,0.00652 -0.50644,0.07833 -0.55434,0.08485l0.219,3.3028c0.21215,-0.0718 1.21818,-0.56787 4.79059,-0.42428l-0.61593,-3.09393l-0.00001,0l0,0.00001z"/>
 </g>
</svg>
