<svg width="128" height="128" xmlns="http://www.w3.org/2000/svg" xml:space="preserve"><defs><radialGradient gradientUnits="userSpaceOnUse" gradientTransform="matrix(1 0 0 1.1901 -98.778 -3.145)" r="21.072" cy="26.802" cx="63.999" id="a"><stop stop-opacity="0" stop-color="#454140" offset=".794"/><stop stop-color="#454140" offset="1"/></radialGradient><radialGradient gradientUnits="userSpaceOnUse" gradientTransform="matrix(1 0 0 1.2135 -98.778 -4.17)" r="22.073" cy="28.603" cx="64.147" id="b"><stop stop-opacity="0" stop-color="#454140" offset=".794"/><stop stop-color="#454140" offset="1"/></radialGradient></defs><path fill="#ffcb23" d="M39.072 90.991c-.99 0-2.47-1.23-2.64-2.48-.08-.59-.19-1.16-.29-1.7-.32-1.67-.59-3.12.08-4.55 1.28-2.69 1.41-3.1 1.71-4.07.07-.22.14-.47.25-.78.27-.81.86-4.47 1.22-8.96.46-5.76 1.31-10.11 2.67-13.69.85-2.24 2.37-3.37 4.51-3.37 1.86 0 3.7.85 4.45 1.24l-2.1 6.85-5.36 19.31.1.19c.81 1.61 1.01 3.62 1.11 5.38.07 1.47-.08 2.19-.16 2.54-.03.15-.05.25-.05.33-.03.62-.51.9-.94.9-.28 0-.48-.11-.54-.31-.18-.52-.19-1.15-.2-1.7-.01-.81-.03-1.65-.77-1.82l-.18-.02c-.33 0-.62.15-.91.44-.55.57-1.12 1.81-1.08 2.8.03.73.12 2.94-.42 3.35-.12.08-.28.12-.46.12zm29.28 30.53-5.15-35.06c-.15-.76-.81-1.27-1.56-1.27s-1.41.51-1.55 1.22l-5.17 35.11-6.2.24-1.03-46.03h27.88l-1.02 46.03-6.2-.24z"/><path d="M71.652 123.879h4.45c.82-.02 1.41-.96 1.17-1.78-.74-2.49-2.99-4.32-5.62-4.32-2.68 0-4.96 1.9-5.66 4.46-.22.82.39 1.63 1.21 1.63h4.45v.01zm-20.04 0h-4.45c-.82-.02-1.41-.96-1.17-1.78.74-2.49 2.99-4.32 5.62-4.32 2.68 0 4.96 1.9 5.66 4.46.22.82-.39 1.63-1.21 1.63h-4.45v.01z" fill="#424242"/><path fill="#312D2D" d="M61.882 4.121c-18.18 0-18.03 16.81-18.03 17.08 0 10.89.83 26.27 5.19 32.32 1.73 2.4 5.07 2.53 5.07 2.53l7.52-.01 7.52.01s3.34-.13 5.07-2.53c4.36-6.05 5.19-21.43 5.19-32.32 0-.27.65-17.08-17.53-17.08z"/><path fill="url(#a)" d="M61.882 4.121c-18.18 0-18.03 16.81-18.03 17.08 0 10.89.83 26.27 5.19 32.32 1.73 2.4 5.07 2.53 5.07 2.53l7.52-.01 7.52.01s3.34-.13 5.07-2.53c4.36-6.05 5.19-21.43 5.19-32.32 0-.27.65-17.08-17.53-17.08z"/><path fill="#ffcb23" d="M71.302 45.214c-2.41-.64-5.58-1.06-9.54-1.06h-.16c-3.96 0-7.18.42-9.57 1.06-7.55 2.01-9.46 6.56-11.71 12.65l7.37 3.2v17.28h28v-17.28l7.28-3.2c-2.25-6.09-4.12-10.64-11.67-12.65z"/><path fill="#e69700" d="M61.632 40.831h-5v5.3c0 2.4 2.03 4.34 4.54 4.34h.91c2.51 0 4.54-1.94 4.54-4.34v-5.3h-4.99z"/><path fill="#ffcb23" d="M61.622 8.501c7.63 0 14.69 5.67 14.69 17.7 0 9.66-5.98 15.38-11.19 17.22-1.24.44-2.44.66-3.5.66s-2.25-.22-3.48-.65c-5.21-1.84-11.21-7.55-11.21-17.23 0-12.03 7.07-17.7 14.69-17.7z"/><path fill="#312D2D" d="M61.882 4.121c-18.18 0-18.03 16.81-18.03 17.08 0 3.44.08 7.33.33 11.23l2.98-.01c-.03-1.29.88-9.3 3.58-9.9 9.91-2.23 15.52-7.49 15.52-7.49 1.46 3.18 6.02 6.29 7.66 7.47 1.35.97 1.76 8.22 1.73 9.92h3.42c0-.02.01-.05.01-.07.25-3.88.33-7.74.33-11.16 0-.26.65-17.07-17.53-17.07z"/><path fill="url(#b)" d="M61.882 4.121c-18.18 0-18.03 16.81-18.03 17.08 0 3.44.08 7.33.33 11.23l2.98-.01c-.03-1.29.88-9.3 3.58-9.9 9.91-2.23 15.52-7.49 15.52-7.49 1.46 3.18 6.02 6.29 7.66 7.47 1.35.97 1.76 8.22 1.73 9.92h3.42c0-.02.01-.05.01-.07.25-3.88.33-7.74.33-11.16 0-.26.65-17.07-17.53-17.07z"/><path fill="#444" d="M65.322 36.101c-1.4.83-5.97.83-7.37 0-.8-.48-1.62.25-1.29.98.33.72 2.82 2.38 4.98 2.38 2.16 0 4.62-1.66 4.95-2.38.34-.73-.47-1.46-1.27-.98z"/><path fill="#DBA689" d="M63.322 32.511a.737.737 0 0 0-.14-.04h-3.1c-.05.01-.1.02-.14.04-.28.11-.44.4-.3.72s.75 1.18 1.99 1.18 1.86-.87 1.99-1.18c.14-.31-.02-.6-.3-.72z"/><g fill="#312D2D"><ellipse ry="2.24" rx="2.16" cy="28.441" cx="54.432"/><ellipse ry="2.24" rx="2.16" cy="28.441" cx="68.832"/></g><path d="M65.632 24.431c.41-.54 1.36-1.34 3.21-1.34s2.8.79 3.21 1.34c.18.24.14.52.01.69-.12.16-.46.3-.84.17-.38-.13-1.13-.51-2.37-.52-1.25.01-1.99.39-2.37.52-.38.13-.73-.01-.84-.17a.54.54 0 0 1-.01-.69zm-14.41 0c.41-.54 1.36-1.34 3.21-1.34s2.8.79 3.21 1.34c.18.24.14.52.01.69-.12.16-.46.3-.84.17-.38-.13-1.13-.51-2.37-.52-1.25.01-1.99.39-2.37.52-.38.13-.73-.01-.84-.17a.54.54 0 0 1-.01-.69z" fill="#454140"/><path d="m77.147 55.72-6.53 6.297 6.109 34.167c5.17-1.843 8.704-5.293 11.542-7.074 1.648-1.035 3.436-1.596 3.436-1.596L77.147 55.72z" fill="#00796B" stroke="null"/><path d="m79.344 60.483 4.26 9.341s-4.534-4.153-5.071.894c-.531 5.046-1.642 10.006-1.642 10.006l-5.573-21.282 8.026 1.04z" fill="#00695C" stroke="null"/><path d="M91.149 86.405c-2.387.555-4.279 1.978-6.36 3.457-2.32 1.67-4.828 3.463-8.301 4.529l.458 2.39c4.461-1.22 7.544-3.42 10.046-5.188 1.899-1.355 3.547-2.532 5.2-2.902l-1.043-2.286z" fill="#E2A610" stroke="null"/><path fill="#ffcb23" d="M85.429 90.579c-.18 0-.34-.05-.46-.14-.53-.4-.44-2.61-.41-3.34.04-1-.53-2.23-1.08-2.81-.28-.29-.58-.44-.88-.44h-.04l-.11.01-.13.04c-.67.15-.68.98-.69 1.79-.01.56-.02 1.18-.2 1.71-.1.3-.47.31-.54.31-.44 0-.92-.28-.94-.9 0-.08-.02-.18-.06-.33-.07-.35-.23-1.07-.15-2.54.1-1.76.31-3.77 1.11-5.38l.1-.19-5.36-19.3-2.1-6.87c.76-.4 2.6-1.25 4.45-1.25 2.15 0 3.66 1.14 4.5 3.38 1.38 3.6 2.23 7.95 2.68 13.7.35 4.42.94 8.1 1.21 8.96.08.25.24.76.24.76.31 1.01.43 1.39 1.72 4.1.68 1.43.41 2.87.09 4.54-.11.56-.21 1.12-.29 1.7-.19 1.27-1.67 2.49-2.66 2.49z"/><path d="M86.321 56.767c-1.526-1.977-4.602-6.192-7.788-8.188-3.852-2.348-7.99-3.79-7.99-3.79s-3.076 5.256-7.642 6.112-8.136-1.916-8.99-3.087c-.916-1.355-1.405-2.84-2.326-2.532-1.526.555-3.913 1.208-6.483 3.087-2.154 1.577-6.244 6.427-7.77 8.398-.366.432-.305 1.11.123 1.48l5.2 5.249c.427.431 1.16.431 1.593 0l3.73-3.58.61 2.656c.732 3.087.976 4.442.915 5.804 0 .056 24.647.056 24.647 0-.06-1.356.183-2.717.916-5.804l.61-2.656 3.73 3.58c.427.431 1.16.431 1.593 0l5.2-5.25a1.07 1.07 0 0 0 .122-1.479z" fill="#C62828" stroke="null"/><path d="m43.448 98.445-1.898 15.62c3.913 2.532 8.564.74 11.194 1.356 2.631.616 5.2 2.532 9.785 2.532s5.871-1.916 8.502-2.532c2.63-.617 6.238 1.232 11.805-2.102l-8.564-46.982c.03-.062-5.444 11.047-13.36 19.304-7.502 7.82-17.464 12.804-17.464 12.804z" fill="#26A69A" stroke="null"/><path d="M49.595 99.148c.5-.302 2.765-1.516 2.557 1.768-.33 5.114-1.397 14.714-1.397 14.714s1.196-.012 1.983.265l3.235 1.146s1.288-11.689 2.082-17.511c1.129-8.263 4.284-10.61 5.23-11.19.94-.573 2.49-.69 3.37 1.319 1.88 4.307 3.424 15.915 3.71 18.398.288 2.484.904 2.145.929-.166.073-7.486.232-25.164.836-29.89 1.129-8.836 2.533-9.502 2.533-9.502l-.397-2.162c.012-.025.525-.031-.793-.031-2.124 4.516-6.696 13.093-13.618 20.093-10.498 10.623-16.407 12.046-16.407 12.046l-.488 4.073s1.703-.37 6.635-3.37z" fill="#00796B" stroke="null"/><path d="M62.529 118.323c-4.67-.019-6.794-1.596-10.212-2.594-3.35-.34-7.483.992-10.889-1.356l.458-3.1c3.357 2.391 7.611 1.06 11.157 1.677 3.303.88 5.402 2.532 9.418 2.532 3.974.031 4.682-2.015 8.137-2.47 4.236-.555 6.824.998 11.719-2.496l.647 3.235c-5.384 3.235-7.66 1.645-11.634 2.095-3.094.942-4.065 2.458-8.801 2.477z" fill="#FFCA28" stroke="null"/><path d="M59.355 50.396c-3.974-.554-5.445-3.641-6.055-4.941-.183-.37-.61-.555-1.038-.432l-2.002.758s1.209 3.321 3.1 4.985c3.73 3.333 9.236 3.272 12.538 1.232l.488-3.95c-2.624 1.979-3.607 2.78-7.031 2.348z" fill="#FF7555" stroke="null"/><path d="M83.412 58.984c-1.349-2.145-4.068-6.717-6.885-8.883-3.404-2.546-7.062-4.11-7.062-4.11s-2.72 5.701-6.755 6.63-7.193-2.079-7.948-3.349c-.81-1.47-1.24-3.08-2.056-2.747-1.348.602-3.458 1.31-5.73 3.349-1.904 1.711-5.52 6.971-6.868 9.11-.324.468-.27 1.203.108 1.604l4.597 5.695c.378.468 1.025.468 1.408 0l3.297-3.883.54 2.88c.647 3.349.862 4.82.809 6.297 0 .06 21.786.06 21.786 0-.054-1.47.162-2.948.81-6.297l.54-2.88 3.296 3.883c.377.468 1.025.468 1.408 0l4.597-5.695c.378-.394.432-1.136.108-1.604z" fill="#C62828" stroke="null"/><path d="M70.134 44.617c-7.8 8.14-22.627 19.846-22.627 19.846l1.178 5.33-1.556 3.297.037 7.086-1.679 3.684-2.039 14.585s15.23-7 23.53-20.395c9.04-14.301 9.98-21.326 11.396-29.755 0 0-4.828-2.902-8.24-3.678z" fill="#80DDD2" stroke="null"/><path d="M47.507 64.463s.885 4.948.94 5.398-1.599 2.656-1.599 3.512c0 .857-.018 5.922-.018 6.525 0 .604-1.55 3.217-1.624 3.808-.073.586-1.764 14.745-1.764 14.745s1.972-.295 4.303-1.663c.562-10.167-.506-13.507 1.52-15.232 2.027-1.72 6.006-4.473 11.042-13.174.214-.363.464-1.115-.037-1.232-.415-.099-.897.807-.989.936-1.464 2.126-3.79 5.096-8.331 7.431-1.953 1.005-1.862-3.789-.958-4.288 1.641-.98 6.14-4.683 9.32-8.805.11-.148.684-.813.427-1.06-.232-.216-.867.413-.867.419 0 0-4.315 4.03-6.195 4.806-2.222.968-1.983-1.214-2.136-4.56-2.326 1.898-3.034 2.434-3.034 2.434z" fill="#29B3A6" stroke="null"/><path fill="#FFE36C" d="m50.907 91.39-1.776-2.218 1.776-2.218 1.782 2.218z" stroke="null"/><path fill="#FFCA28" stroke="null" d="m45.933 94.274-1.44-1.806 1.44-1.799 1.446 1.8z"/><path fill="#FFE36C" d="m60.392 82.573-2.142-2.594 2.142-2.595 2.076 2.656zm8.704-12.435-2.142-2.594 2.142-2.588 2.076 2.65zm3.022-6.057-1.856-2.249 1.856-2.243 1.8 2.299zM55.833 87.459l-2.02-2.446 1.959-2.44 2.02 2.44z" stroke="null"/><path fill="#FFCA28" stroke="null" d="m48.075 108.692-2.142-2.594 2.142-2.594 2.081 2.594zm27.625 0-2.142-2.594 2.142-2.594 2.143 2.594z"/><path fill="#FFE36C" stroke="null" d="m62.498 112.457-2.136-2.594 2.136-2.594 2.143 2.594z"/><path d="M55.247 52.122A8.326 8.326 0 0 1 52 49.25a.524.524 0 0 1 .189-.74l1.227-.69a.514.514 0 0 1 .659.13c.635.82 1.215 1.399 2.136 1.947.226.13.312.413.214.653l-.488 1.294a.5.5 0 0 1-.69.278z" fill="#FFA996" stroke="null"/><path fill="#FFE36C" d="m74.38 58.751-1.605-1.984 1.563-1.897 1.605 1.94zm1.449-5.441-1.38-1.712 1.337-1.633 1.385 1.67zm-10.706 23.1-2.228-2.698 2.167-2.699 2.228 2.7z" stroke="null"/><path d="m60.398 115.92-.122 1.423a.554.554 0 0 0 .464.592c.867.129 2.692.209 4.493-.13a.55.55 0 0 0 .427-.622l-.244-1.491c-.043-.308-.33-.543-.629-.475-1.819.4-3.082.265-3.79.191a.537.537 0 0 0-.599.512z" fill="#FFF59D" stroke="null"/><path d="m70.958 44.82-1.33-.438C61.002 53.015 48.24 62.707 48.24 62.707c-.75.635-.83 1.362-.653 2.471 9.924-6.094 23.37-20.358 23.37-20.358zm7.178 3.438s-.104 11.707-11.896 29.256C57.81 90.053 46.83 95.709 43.546 97.23c-.085.795-.183 1.652-.25 2.292 0 0 14.49-5.502 24.5-21.036C78.868 61.31 79.37 48.997 79.37 48.997c-.66-.468-.897-.61-1.233-.739z" fill="#FFE36C" stroke="null"/><path d="m75.346 46.631-.878-.394c-7.154 22.515-22.59 35.923-29.713 41.259-.019.08-.031.154-.05.234a63.17 63.17 0 0 0-.335 2.249c6.415-4.338 23.035-17.66 30.976-43.348z" fill="#FFE36C" stroke="null"/><path d="M53.599 58.487c-3.174 2.557-5.701 4.35-5.701 4.35-.75.634-.488 1.232-.311 2.341 1.971-1.214 4.09-2.748 6.207-4.43a95.375 95.375 0 0 0-.195-2.261zm-5.762 36.471c-1.58.912-3.48 1.904-4.285 2.28-.085.794-.183 1.65-.25 2.292 0 0 2.075-.875 4.535-2.231v-2.341zm-3.082-7.462c-.019.08-.031.154-.05.234a63.17 63.17 0 0 0-.335 2.249c.757-.511 2.564-1.855 3.57-2.619l.062-2.434c-.873.715-2.527 2.028-3.247 2.57zm21.21-39.601c.452.11 1.813.178 1.813.178 1.02-1.041 3.18-3.253 3.18-3.253l-1.33-.438c-.562.567-3.065 2.946-3.663 3.513zm6.605 3.573 1.019.296c.366-.875 1.538-4.424 1.757-5.126l-.878-.4c-.214.67-1.899 5.23-1.899 5.23zm4.601 2.705 1.24.647c.805-2.84.964-5.822.964-5.822s-.806-.647-1.24-.845c0 0-.133 2.736-.964 6.02z" fill="#FFCA28" stroke="null"/><path d="M56.321 114.102c-2.551-1.411-4.584-1.306-5.261-1.325-.183 1.707-.305 2.896-.305 2.896 1.91.05 2.453.524 5.218 1.368 0-.006.14-1.164.348-2.939zm17.707-1.214c-.94-.012-2.338-.018-3.424.123l-.495.08.196 3.118c.189-.068 1.086-.536 4.272-.4l-.549-2.92z" fill="#E2A610" stroke="null"/></svg>
