<svg version="1.1" id="Layer_5" xmlns="http://www.w3.org/2000/svg" xmlns:xlink="http://www.w3.org/1999/xlink" x="0px" y="0px"
	 viewBox="0 0 128 128" style="enable-background:new 0 0 128 128;" xml:space="preserve">

 <g>
  <title>Layer 1</title>
  <path id="svg_1" fill="#91561f" d="m32,24.66c0,0 2.43,-7.3 8.16,-11.88s58.85,15.04 58.85,15.04s9.28,3.31 14.77,12.08c3.69,5.9 5.75,14.62 1.84,25.15c-9.32,25.08 -33.5,22.18 -39.8,20.75c-2.96,-0.67 -10.17,-2.58 -10.17,-2.58s-16.47,13.6 -36.29,3.17c-15.09,-7.94 -13.22,-19.81 -13.22,-19.81s-10.16,-10.16 -5.76,-24.31c5.3,-17.04 21.62,-17.61 21.62,-17.61z"/>
  <path id="svg_2" fill="#bc822b" d="m66.37,55.01c13.75,-2.29 18.04,-8.16 21.77,-13.6c4.11,-6 3.01,-11.03 5.87,-11.17s5.14,5.02 2,14.03c-4.44,12.74 -13.57,14.61 -13.75,18.04c-0.14,2.72 9.72,2.91 18.62,-1.43c12.89,-6.3 12.89,-21.05 12.89,-21.05s-2.29,-4.73 -6.73,-8.02s-7.74,-5.01 -7.74,-5.01s-5.3,-19.9 -29.35,-23.2s-33.94,13.47 -33.94,13.47s0.86,5.44 5.01,11.74c3.31,5.03 6.73,4.87 6.44,7.73c-0.19,1.86 -6.16,2.43 -12.46,-0.29c-5.74,-2.48 -7.16,-5.87 -8.73,-5.87s-14.59,7.25 -9.16,22.62c4.3,12.17 18.51,14.45 21.05,14.89c7.45,1.29 11.74,-3.58 6.44,-7.45s-11.17,-6.16 -9.88,-10.02c1.39,-4.18 6.35,0.18 12.31,2.76c5.89,2.55 13.02,2.89 19.34,1.83z"/>
  <path id="svg_3" fill="#6D4B41" d="m39.03,70.97c0,0 3.3,-0.19 4.66,-0.58c1.36,-0.39 3.2,-1.55 3.2,-1.55s12.75,13.34 14.07,14.46c1.29,1.09 2.81,-15.53 2.81,-15.53s2.91,0.45 5.63,0.02c3.58,-0.57 6.02,-1.71 6.02,-1.71s-1.74,10.23 -2.42,14.11c-0.43,2.49 -0.58,9.41 -0.58,9.41l-9.32,7.76l-7.09,-4.76c0,0 -0.02,-1.87 -1.07,-3.14c-3.26,-3.94 -15.91,-18.49 -15.91,-18.49z"/>
  <path id="svg_4" fill="#6D4B41" d="m71.54,93.78l7.09,-8.54c0,0 2.52,0.19 4.37,0.19c1.84,0 5.05,-0.39 5.05,-0.39s-5.82,7.86 -8.93,11.74c-3.11,3.88 -7.18,8.74 -7.18,8.74l-3.88,-11.26l3.48,-0.48z"/>
  <path id="svg_5" fill="#865B50" d="m66.5,86.98c-2.9,0.26 -10.48,5.63 -10.48,5.63s0.39,9.12 0.1,14.27s-2.32,13.56 -0.45,15.69c1.62,1.84 15.24,2.19 17.27,0.05c2.04,-2.14 0.06,-10.98 0.06,-16.71c0,-5.73 -0.58,-16.31 -0.58,-16.31s-2.62,-2.91 -5.92,-2.62z"/>
 </g>
</svg>
