<svg version="1.1" id="Layer_1" xmlns="http://www.w3.org/2000/svg" xmlns:xlink="http://www.w3.org/1999/xlink" x="0px" y="0px"
	 viewBox="0 0 128 128" style="enable-background:new 0 0 128 128;" xml:space="preserve">
<g>
  <title>Layer 1</title>
  <path fill="#a76c41" d="m86.56,90.74301c-0.18,0 -0.34,-0.05 -0.46,-0.14c-0.53,-0.4 -0.44,-2.61 -0.41,-3.34c0.04,-1 -0.53,-2.23 -1.08,-2.81c-0.28,-0.29 -0.58,-0.44 -0.88,-0.44l-0.04,0l-0.11,0.01l-0.13,0.04c-0.67,0.15 -0.68,0.98 -0.69,1.79c-0.01,0.56 -0.02,1.18 -0.2,1.71c-0.1,0.3 -0.47,0.31 -0.54,0.31c-0.44,0 -0.92,-0.28 -0.94,-0.9c0,-0.08 -0.02,-0.18 -0.06,-0.33c-0.07,-0.35 -0.23,-1.07 -0.15,-2.54c0.1,-1.76 0.31,-3.77 1.11,-5.38l0.1,-0.19l-5.36,-19.3l-2.1,-6.87c0.76,-0.4 2.6,-1.25 4.45,-1.25c2.15,0 3.66,1.14 4.5,3.38c1.38,3.6 2.23,7.95 2.68,13.7c0.35,4.42 0.94,8.1 1.21,8.96c0.08,0.25 0.24,0.76 0.24,0.76c0.31,1.01 0.43,1.39 1.72,4.1c0.68,1.43 0.41,2.87 0.09,4.54c-0.11,0.56 -0.21,1.12 -0.29,1.7c-0.19,1.27 -1.67,2.49 -2.66,2.49z" id="arm_3_"/>
  <path fill="#a76c41" d="m41.44,90.74301c-0.99,0 -2.47,-1.23 -2.64,-2.48c-0.08,-0.59 -0.19,-1.16 -0.29,-1.7c-0.32,-1.67 -0.59,-3.12 0.08,-4.55c1.28,-2.69 1.41,-3.1 1.71,-4.07c0.07,-0.22 0.14,-0.47 0.25,-0.78c0.27,-0.81 0.86,-4.47 1.22,-8.96c0.46,-5.76 1.31,-10.11 2.67,-13.69c0.85,-2.24 2.37,-3.37 4.51,-3.37c1.86,0 3.7,0.85 4.45,1.24l-2.1,6.85l-5.36,19.31l0.1,0.19c0.81,1.61 1.01,3.62 1.11,5.38c0.07,1.47 -0.08,2.19 -0.16,2.54c-0.03,0.15 -0.05,0.25 -0.05,0.33c-0.03,0.62 -0.51,0.9 -0.94,0.9c-0.28,0 -0.48,-0.11 -0.54,-0.31c-0.18,-0.52 -0.19,-1.15 -0.2,-1.7c-0.01,-0.81 -0.03,-1.65 -0.77,-1.82c0,0 -0.18,-0.02 -0.18,-0.02c-0.33,0 -0.62,0.15 -0.91,0.44c-0.55,0.57 -1.12,1.81 -1.08,2.8c0.03,0.73 0.12,2.94 -0.42,3.35c-0.12,0.08 -0.28,0.12 -0.46,0.12z" id="arm_2_"/>
  <path id="svg_13" fill="#a76c41" d="m70.65125,121.11893l-4.97923,-35.06c-0.14503,-0.76 -0.78314,-1.27 -1.50827,-1.27s-1.36324,0.51 -1.4986,1.22l-4.99856,35.11l-5.99441,0.24l-0.99585,-46.03l26.9555,0l-0.98618,46.03l-5.99441,-0.24l0.00001,0z"/>
  <g id="shoes_1_">
   <path id="svg_14" fill="#424242" d="m74.02,124l4.45,0c0.82,-0.02 1.41,-0.96 1.17,-1.78c-0.74,-2.49 -2.99,-4.32 -5.62,-4.32c-2.68,0 -4.96,1.9 -5.66,4.46c-0.22,0.82 0.39,1.63 1.21,1.63l4.45,0l0,0.01z"/>
   <path id="svg_15" fill="#424242" d="m53.98,124l-4.45,0c-0.82,-0.02 -1.41,-0.96 -1.17,-1.78c0.74,-2.49 2.99,-4.32 5.62,-4.32c2.68,0 4.96,1.9 5.66,4.46c0.22,0.82 -0.39,1.63 -1.21,1.63l-4.45,0l0,0.01z"/>
  </g>
  <path fill="#a76c41" d="m73.35365,44.73301c-2.31186,-0.64 -5.35278,-1.06 -9.15153,-1.06l-0.07674,0l-0.07674,0c-3.79875,0 -6.88763,0.42 -9.18031,1.06c-7.24256,2.01 -9.07479,6.56 -11.23316,12.65l7.06989,3.2l0,17.28l26.85983,0l0,-17.28l6.98356,-3.2c-2.15838,-6.09 -3.95223,-10.64 -11.19479,-12.65l-0.00001,0z" id="shirt_2_"/>
  <path fill="#7a4c32" d="m64.13699,40.85699l-5,0l0,5.3c0,2.4 2.03,4.34 4.54,4.34l0.91,0c2.51,0 4.54,-1.94 4.54,-4.34l0,-5.3l-4.99,0z" id="neck_4_"/>
  <path fill="#7a4c32" d="m75.97,24.47699l-3.23,0l-17.48,0l-3.23,0c-2.58,0 -4.69,2.25 -4.69,5s2.11,5 4.69,5l3.23,0l17.49,0l3.23,0c2.58,0 4.69,-2.25 4.69,-5s-2.11,-5 -4.7,-5z" id="ears"/>
  <path fill="#a76c41" d="m64,6.66l0,0l0,0c-7.62,0 -14.69,8.15 -14.69,19.89c0,11.67 7.28,17.44 14.69,17.44s14.69,-5.77 14.69,-17.44c0,-11.74 -7.07,-19.89 -14.69,-19.89z" id="head"/>
  <g stroke-opacity="0" stroke="#0f0f00" fill="#39281e" id="hairGroup_3_">
   <path fill="#53362c" d="m63.79261,4.01l0,0c0,0 -0.01,0 0,0c-0.01,0 -0.01,0 -0.01,0l0,0c-19.47,0.1 -15.48,22.34 -15.48,22.34s1.05,3.85 1.05,3.77c0,0 2.31,-8.61 3.19,-10.95c0.44,-1.18 1.67,-1.87 2.91,-1.64c1.91,0.34 4.95,0.77 8.3,0.77c0.01,0 0.02,0 0.04,0c0.01,0 0.02,0 0.04,0c3.35,0 6.39,-0.43 8.3,-0.77c1.24,-0.23 2.47,0.46 2.91,1.64c0.88,2.34 3.18,10.95 3.18,10.95c0,0.08 1.06,-3.77 1.06,-3.77s3.98,-22.24 -15.49,-22.34z" id="hair_5_"/>
   <path fill="#53362c" d="m79.27261,26.35c0,0 3.99,-22.24 -15.48,-22.34l0,0c0,0 0,0 -0.01,0l0,0c0,0 0,0 -0.01,0l0,0c-0.3,0 -0.6,0.01 -0.89,0.02c-0.58,0.03 -1.14,0.07 -1.68,0.13c-0.01,0 -0.01,0 -0.02,0c-0.04,0.01 -0.08,0.01 -0.11,0.01c-16.38,2.07 -12.78,22.18 -12.78,22.18s1.05,3.85 1.05,3.77c0,0 2.31,-8.61 3.19,-10.95c0.44,-1.18 1.67,-1.87 2.91,-1.64c1.91,0.34 4.95,0.77 8.3,0.77c0.01,0 0.02,0 0.04,0c0.01,0 0.02,0 0.04,0c3.35,0 6.39,-0.43 8.3,-0.77c1.24,-0.23 2.47,0.46 2.91,1.64c0.88,2.34 3.18,10.95 3.18,10.95c-0.01,0.08 1.06,-3.77 1.06,-3.77z" id="hairHighlights"/>
  </g>
  <path fill="#473530" d="m67.82699,35.99c-1.4,0.83 -5.97,0.83 -7.37,0c-0.8,-0.48 -1.62,0.25 -1.29,0.98c0.33,0.72 2.82,2.38 4.98,2.38c2.16,0 4.62,-1.66 4.95,-2.38c0.34,-0.73 -0.47,-1.46 -1.27,-0.98z" id="mouth_4_"/>
  <path fill="#875334" d="m65.69,32.4c-0.05,-0.02 -0.09,-0.03 -0.14,-0.04l-3.1,0c-0.05,0.01 -0.1,0.02 -0.14,0.04c-0.28,0.11 -0.44,0.4 -0.3,0.72s0.75,1.18 1.99,1.18c1.24,0 1.86,-0.87 1.99,-1.18c0.14,-0.31 -0.02,-0.6 -0.3,-0.72z" id="nose_4_"/>
  <g fill="#404040" id="eyes_4_">
   <ellipse id="svg_16" fill="#47332a" ry="2.24" rx="2.16" cy="28.33" cx="56.8"/>
   <ellipse id="svg_17" fill="#47332a" ry="2.24" rx="2.16" cy="28.33" cx="71.2"/>
  </g>
  <g id="eyebrows_4_" fill="#53362c">
   <path id="svg_18" fill="#714b37" d="m68,24.32c0.41,-0.54 1.36,-1.34 3.21,-1.34s2.8,0.79 3.21,1.34c0.18,0.24 0.14,0.52 0.01,0.69c-0.12,0.16 -0.46,0.3 -0.84,0.17c-0.38,-0.13 -1.13,-0.51 -2.37,-0.52c-1.25,0.01 -1.99,0.39 -2.37,0.52c-0.38,0.13 -0.73,-0.01 -0.84,-0.17c-0.15,-0.18 -0.19,-0.45 -0.01,-0.69z"/>
   <path id="svg_19" fill="#714b37" d="m53.59,24.32c0.41,-0.54 1.36,-1.34 3.21,-1.34s2.8,0.79 3.21,1.34c0.18,0.24 0.14,0.52 0.01,0.69c-0.12,0.16 -0.46,0.3 -0.84,0.17c-0.38,-0.13 -1.13,-0.51 -2.37,-0.52c-1.25,0.01 -1.99,0.39 -2.37,0.52c-0.38,0.13 -0.73,-0.01 -0.84,-0.17c-0.15,-0.18 -0.19,-0.45 -0.01,-0.69z"/>
  </g>
  <path stroke="null" d="m77.94777,81.11591l-13.82913,0l-0.0057,0l-13.82913,0l-2.47,16.66299l14.84283,3.00353l1.02798,-5.23872c0.04283,-0.21731 0.23701,-0.32338 0.42832,-0.32079c0.19417,-0.00259 0.38549,0.10607 0.42832,0.32079l1.02798,5.23872l14.84283,-3.00353l-2.46428,-16.66299l-0.00001,0l-0.00001,0z" fill="#29B6F6" id="svg_2"/>
  <path stroke="null" d="m78.1448,78.12531c-0.02284,-0.58726 -0.52827,-1.05033 -1.14505,-1.05033l-25.77364,0c-0.61678,0 -1.12221,0.46307 -1.14505,1.05033l0.20273,2.9906l27.65541,0l0.20559,-2.9906l0.00001,0l-0.00001,0l0.00001,0z" fill="#1C3AA9" id="svg_3"/>
  <path stroke="null" d="m47.77098,98.08416c0,0 -0.5968,4.24012 -0.78525,5.51811c-0.02855,0.20438 0.34267,0.43721 0.34267,0.43721c5.46826,2.52234 13.74346,2.51459 13.74346,2.51459c0.23987,0.04398 0.47116,-0.0983 0.51398,-0.31562c0.11136,-0.57173 0.22559,-1.14346 0.33695,-1.7152c0.11422,-0.58467 0.57395,-2.92592 0.68817,-3.51058l-14.83997,-2.92851l-0.00001,0z" fill="#2A56C6" id="svg_4"/>
  <path stroke="null" d="m62.55098,101.32052c-0.97658,-0.5381 -1.36493,-3.00094 -2.51854,-3.12771s-2.15875,1.87559 -3.49798,1.70226c-1.33922,-0.17074 -1.27069,-2.6517 -2.73555,-2.92074c-1.3278,-0.24318 -2.54424,1.97131 -3.9263,1.53927c-0.95088,-0.29492 -0.67103,-1.66863 -1.85893,-2.10583l-0.51684,3.53128c0.32267,0.65969 0.87663,1.4151 2.04168,1.66604c1.52482,0.32596 2.24727,-0.61054 2.85549,-1.13311c0.17133,-0.14746 0.45688,-0.4786 0.70817,-0.46825c0.36265,0.01811 0.43404,0.40358 0.51684,0.71402c0.19131,0.7373 0.71387,1.9118 2.23871,2.23777c1.52482,0.32596 2.41289,-0.50705 3.01824,-1.02705c0.17133,-0.14746 0.42832,-0.55103 0.71102,-0.48119s0.27127,0.35442 0.40262,0.69332c0.26271,0.68039 0.63678,1.74106 1.99028,2.1317l0.5711,-2.95179l-0.00001,0.00001z" fill="#4DB6AC" id="svg_5"/>
  <path stroke="null" d="m62.47388,101.71117l0.27983,-1.41769c-0.21131,-0.13194 -0.37121,-0.40358 -0.5711,-0.90546c-0.27413,-0.68297 -0.6482,-1.61948 -1.84465,-1.87559c-1.19645,-0.25611 -1.99312,0.42945 -2.57566,0.93133c-0.54826,0.47084 -0.80525,0.65711 -1.15361,0.58208c-0.34837,-0.07502 -0.48542,-0.34407 -0.74243,-0.98565c-0.27413,-0.68297 -0.6482,-1.61948 -1.84465,-1.87559c-1.19645,-0.25611 -1.99312,0.42945 -2.57566,0.93133c-0.54826,0.47084 -0.80525,0.65452 -1.15076,0.58208c-0.34837,-0.07502 -0.48542,-0.34407 -0.74243,-0.98824c-0.22843,-0.57432 -0.4997,-1.30903 -1.30211,-1.68674l-0.30268,1.81867c0.04568,0.10089 0.09138,0.21472 0.14563,0.34666c0.27413,0.68297 0.6482,1.61948 1.84465,1.87559c1.19645,0.25611 1.99312,-0.42945 2.57566,-0.93133c0.54826,-0.47084 0.80525,-0.65711 1.15076,-0.58208c0.34837,0.07502 0.48542,0.34407 0.74243,0.98565c0.27413,0.68297 0.6482,1.61948 1.84465,1.87559c1.19645,0.25611 1.99312,-0.42945 2.57566,-0.93133c0.54826,-0.47084 0.80525,-0.65452 1.15361,-0.58208c0.34837,0.07502 0.48828,0.34407 0.74529,0.98824c0.25985,0.65969 0.65105,1.55221 1.74756,1.84454l0.00001,0.00002z" fill="#82E8B6" id="svg_6"/>
  <path stroke="null" d="m80.46061,98.08416c0,0 0.5968,4.24012 0.78525,5.51811c0.02855,0.20438 -0.34267,0.43721 -0.34267,0.43721c-5.46826,2.52234 -13.74346,2.51459 -13.74346,2.51459c-0.23987,0.04398 -0.47116,-0.0983 -0.51398,-0.31562c-0.11136,-0.57173 -0.22559,-1.14346 -0.33695,-1.7152c-0.11422,-0.58467 -0.57395,-2.92592 -0.68817,-3.51058l14.83997,-2.92851l0.00001,0z" fill="#2A56C6" id="svg_7"/>
  <path stroke="null" d="m65.68059,101.32052c0.97658,-0.5381 1.36493,-3.00094 2.51854,-3.12771s2.15875,1.87559 3.49798,1.70226c1.33922,-0.17074 1.27069,-2.6517 2.73555,-2.92074c1.3278,-0.24318 2.54424,1.97131 3.9263,1.53927c0.95088,-0.29492 0.67103,-1.66863 1.85893,-2.10583l0.5197,3.53387c-0.32267,0.65969 -0.87663,1.4151 -2.04168,1.66604c-1.52482,0.32596 -2.24727,-0.61054 -2.85549,-1.13311c-0.17133,-0.14746 -0.45688,-0.4786 -0.70817,-0.46825c-0.36265,0.01811 -0.43404,0.40358 -0.51684,0.71402c-0.19131,0.7373 -0.71387,1.9118 -2.23871,2.23777c-1.52482,0.32596 -2.41289,-0.50705 -3.01824,-1.02705c-0.17133,-0.14746 -0.42832,-0.55103 -0.71102,-0.48119c-0.27983,0.06985 -0.27127,0.35442 -0.40262,0.69332c-0.26271,0.68039 -0.63678,1.74106 -1.99028,2.1317l-0.57395,-2.95438l0.00001,0.00001l-0.00001,0z" fill="#4DB6AC" id="svg_8"/>
  <path stroke="null" d="m65.75769,101.71117l-0.27983,-1.41769c0.21131,-0.13194 0.37121,-0.40358 0.5711,-0.90546c0.27413,-0.68297 0.6482,-1.61948 1.84465,-1.87559c1.19645,-0.25611 1.99312,0.42945 2.57566,0.93133c0.54826,0.47084 0.80525,0.65711 1.15361,0.58208c0.34837,-0.07502 0.48542,-0.34407 0.74243,-0.98565c0.27413,-0.68297 0.6482,-1.61948 1.84465,-1.87559c1.19645,-0.25611 1.99312,0.42945 2.57566,0.93133c0.54826,0.47084 0.80525,0.65452 1.15076,0.58208c0.34837,-0.07502 0.48542,-0.34407 0.74243,-0.98824c0.22843,-0.57432 0.4997,-1.30903 1.30211,-1.68674l0.30268,1.81867c-0.04568,0.10089 -0.09138,0.21472 -0.14563,0.34666c-0.27413,0.68297 -0.6482,1.61948 -1.84465,1.87559c-1.19645,0.25611 -1.99312,-0.42945 -2.57566,-0.93133c-0.54826,-0.47084 -0.80525,-0.65711 -1.15076,-0.58208c-0.34837,0.07502 -0.48542,0.34407 -0.74243,0.98565c-0.27413,0.68297 -0.6482,1.61948 -1.84465,1.87559c-1.19645,0.25611 -1.99312,-0.42945 -2.57566,-0.93133c-0.54826,-0.47084 -0.80525,-0.65452 -1.15361,-0.58208c-0.34837,0.07502 -0.48828,0.34407 -0.74529,0.98824c-0.25985,0.65969 -0.65105,1.55221 -1.74756,1.84454l-0.00001,0.00002z" fill="#82E8B6" id="svg_9"/>
  <path stroke="null" d="m68.23627,79.93881l-6.36203,0c-0.39406,0 -0.71387,-0.28975 -0.71387,-0.64675l0,-0.57432c0,-0.35442 0.31981,-0.64675 0.71387,-0.64675l6.36203,0c0.39406,0 0.71387,0.28975 0.71387,0.64675l0,0.57432c0,0.35701 -0.32267,0.64675 -0.71387,0.64675z" opacity="0.57" fill="#212121" id="svg_10"/>
  <path stroke="#FAFAFA" d="m63.0174,79.03853c2.58136,0.30785 7.57846,3.95037 6.40771,6.50635c-0.35123,0.76835 -2.43573,1.37371 -3.43515,-2.05151c-0.37692,-1.29351 -0.20273,-3.22084 -0.58252,-3.29069c-0.37978,-0.06985 0.13421,7.56186 -2.74697,8.26294c-1.0908,0.26647 -3.16959,-0.60277 -1.92746,-3.49765c0.43975,-1.02705 4.33749,-5.52587 7.41571,-5.92686" fill="none" stroke-linecap="round" stroke-miterlimit="10" id="svg_11"/>
 </g>


</svg>
