<svg version="1.1" id="Layer_3" xmlns="http://www.w3.org/2000/svg" xmlns:xlink="http://www.w3.org/1999/xlink" x="0px" y="0px"
	 viewBox="0 0 128 128" style="enable-background:new 0 0 128 128;" xml:space="preserve">
 <g>
  <title>Layer 1</title>
  <path id="svg_1" fill="#5B9821" d="m33.84157,25.92405c0,0 2.43,-7.3 8.16,-11.88s58.85,15.04 58.85,15.04s9.28,3.31 14.77,12.08c3.69,5.9 5.75,14.62 1.84,25.15c-9.32,25.08 -33.5,22.18 -39.8,20.75c-2.96,-0.67 -10.17,-2.58 -10.17,-2.58s-16.47,13.6 -36.29,3.17c-15.09,-7.94 -13.22,-19.81 -13.22,-19.81s-10.16,-10.16 -5.76,-24.31c5.3,-17.04 21.62,-17.61 21.62,-17.61z"/>
  <path id="svg_4" fill="#6D4B41" d="m40.87157,72.23405c0,0 3.3,-0.19 4.66,-0.58c1.36,-0.39 3.2,-1.55 3.2,-1.55s12.75,13.34 14.07,14.46c1.29,1.09 2.81,-15.53 2.81,-15.53s2.91,0.45 5.63,0.02c3.58,-0.57 6.02,-1.71 6.02,-1.71s-1.74,10.23 -2.42,14.11c-0.43,2.49 -0.58,9.41 -0.58,9.41l-9.32,7.76l-7.09,-4.76c0,0 -0.02,-1.87 -1.07,-3.14c-3.26,-3.94 -15.91,-18.49 -15.91,-18.49z"/>
  <path id="svg_5" fill="#6D4B41" d="m73.38157,95.04405l7.09,-8.54c0,0 2.52,0.19 4.37,0.19c1.84,0 5.05,-0.39 5.05,-0.39s-5.82,7.86 -8.93,11.74c-3.11,3.88 -7.18,8.74 -7.18,8.74l-3.88,-11.26l3.48,-0.48z"/>
  <path id="svg_6" fill="#865B50" d="m68.34157,88.24405c-2.9,0.26 -10.48,5.63 -10.48,5.63s0.39,9.12 0.1,14.27s-2.32,13.56 -0.45,15.69c1.62,1.84 15.24,2.19 17.27,0.05c2.04,-2.14 0.06,-10.98 0.06,-16.71c0,-5.73 -0.58,-16.31 -0.58,-16.31s-2.62,-2.91 -5.92,-2.62z"/>
  <path stroke="#d5f0f2" fill="#fff" id="svg_2" d="m93.57694,8.97986c7.6392,4.95299 11.81247,12.35746 16.69307,19.61185c4.8806,7.25438 10.61,14.30864 10.89293,21.66309c0.2122,7.35444 -4.95133,14.95904 -13.08567,19.56182c-8.20507,4.55275 -19.38093,6.20375 -29.42507,6.55396c-10.11487,0.35021 -19.16873,-0.55033 -29.35433,-1.40085c-10.25633,-0.85051 -21.6444,-1.651 -28.71773,-5.90357c-7.07333,-4.3026 -9.83193,-12.05728 -11.8832,-20.11215c-2.05127,-8.00484 -3.46593,-16.30985 1.62687,-21.81318c5.0928,-5.50332 16.62233,-8.25499 26.525,-12.50755c9.9734,-4.20254 18.2492,-9.90598 28.08113,-11.50695c9.7612,-1.60097 20.93707,0.90054 28.647,5.85354z"/>
 </g>

</svg>
